<?xml version="1.0" standalone="no"?>
<!DOCTYPE svg PUBLIC "-//W3C//DTD SVG 1.1//EN" "http://www.w3.org/Graphics/SVG/1.1/DTD/svg11.dtd" >
<svg xmlns="http://www.w3.org/2000/svg">
<metadata>Generated by IcoMoon</metadata>
<defs>
<font id="icomoon" horiz-adv-x="1024">
<font-face units-per-em="1024" ascent="960" descent="-64" />
<missing-glyph horiz-adv-x="1024" />
<glyph unicode="&#x20;" horiz-adv-x="512" d="" />
<glyph unicode="&#xe900;" glyph-name="battle-net" d="M897.22 508.76c53.74-0.36 71.14 14.86 77.84 24.74 24.94 32.64-14.12 95.2-105.7 142.66 35.52 67.16 60.22 127.36 72.68 170.6 6.76 23.66 2.18 38 0.9 40.5-3.44-21.040-31.7-96.92-96.4-200.1-50 22.44-113.040 40.2-187.54 47.6-17.88 33.88-69.76 127.72-120.96 177.86-33.68 33.1-60.64 45.24-81.68 46.94h-0.1c-27.66 3.1-45.34-11.7-54.8-22-34.4-37.060-48.66-97.74-50-168.14-14.48 24.7-34.34 49.26-57 51.86h-0.36c-41.32 6.96-76.78-58.44-72-162.58-76.72-2.76-142-11.5-186-22.46-19.8-4.9-32.44-14.54-35.52-19.44 2 0.76 44.8 18.44 223.12 18.44 10.44-106 59.5-203.64 52-186.38-19.46-30.8-76.48-124.72-94.62-195.4-11.74-45.76-8.74-75.22 0.3-94.28 11.14-25.5 32.82-33.44 46.4-36.52 50-11.42 110.76 7.26 173.4 42.28-15.060-25.68-27.8-57.020-18.12-78.68 14.62-39.3 88.98-37.32 176.88 18.9 40.36-64.36 80.14-115.88 111.4-148.24 5.060-5.444 10.814-10.141 17.146-13.981l0.354-0.199c10.28-6.42 17.16-6.74 17.16-6.74-16.48 13.5-68 76-125.080 183.56 44.44 32 91.3 77.74 134.94 138.54 245.64-9.2 286.58 49.52 296 63.28 29.34 39.76 6.86 114.88-114.64 187.38zM741.52 296.32c47.62 75.42 60.68 135.54 58.9 184.66 55.72-35.14 94.36-75.16 98.12-117.66 2.28-25.86-16.2-58.24-157.020-67zM433.8 184.62c19.52 12.46 39.060 26.24 58.4 40.98 13.36-26.66 27.2-52.2 41.2-76.38-81.2-43.72-137.68-25.52-99.6 35.4zM863.8 527.32c-20.58 10.68-42.32 20.68-64.76 30.1 12.401 18.306 27.444 42.397 41.783 66.948l3.697 6.852c78.12-48.2 91.8-106.36 19.28-103.9zM558.36 164c-11.020 22.7-22 47-33 72.88 86.5-2.54 124.84 37.46 126.56 40.82 0-0.14-50-31.28-125.060-24.5 61.995 51.997 117.63 106.96 168.532 166.112l1.588 1.888q26.12 30.62 49.86 62.22c-0.72 0.58-3.080 6-33.020 24-103.4-120.54-204.68-196-265.5-231.84-41.18 22.36-81.68 63.56-111.42 122.98-40 79.84-60 164.78-63.14 232.14 24.6-1.82 50.54-4.34 77.7-7.76-44.58-73.6-28.78-126-26.94-128.46 0 0.14-1.9 58.34 40.28 119.14 20.050-115.181 51.073-217.794 92.801-314.714l-3.461 9.034c1.86 0.76 3.68-1.76 37.34 16.5-52.66 148.94-67.52 276.34-68 346.86 40 24.84 96.36 39.6 163.26 35.62 89.14-5.34 172.72-30.5 232.64-61.42q-21.38-31.32-46.66-64.94c-41.46 75.44-94.52 87.76-97.72 87.44 0.22 0 51.8-28.14 83.040-94.44-64.552 24.692-141.94 46.634-221.675 61.978l-9.005 1.442c-18.471 3.781-45.312 8.033-72.414 11.446l-6.366 0.654c-0.14-0.9-3.62-3.7-4.32-40.66 155.74-28.98 273.3-79.78 334.46-114.42 1.48-47.1-13.9-103.22-50.82-159.14-49.2-74.62-112.78-134.46-169.54-170.86zM613.16 738c-89.12 3.32-147.16-14.86-189.38-41.34 4 104.6 42.62 152.76 76.42 150.56 33.8 8.48 109.8-104.32 112.96-109.22zM351.86 731.8c0.96-24.22 3.18-49.24 6.42-74.56-29.1 1.7-57.48 2.5-84.8 2.52-0.16-6.48-0.24 102 49.34 99.18h0.18c11.52-2.18 21.26-13.76 28.86-27.14zM295.74 407.8c41.52-79.4 86.6-121.14 130.5-144.62-93.58-49.52-155.060-40-169.84-9.020-0.4 0.42-22.26 30.6 39.34 153.62z" />
<glyph unicode="&#xe901;" glyph-name="joker" horiz-adv-x="1048" d="M987.136 552.44c-0.002 0-0.004 0-0.006 0-7.078 0-13.875-1.2-20.2-3.407l0.43 0.131c-56.394 66.822-115.147 95.445-195.265 95.445-20.775 0-41.763-3.359-62.464-9.83-4.104 88.228-38.011 175.718-93.798 237.462-51.438 56.926-116.285 87.269-187.515 87.761h-1.589c-47.301 0-97.788-14.541-150.11-43.205-11.322 15.098-29.178 24.762-49.291 24.762-33.932 0-61.439-27.506-61.44-61.438v0c0-0.002 0-0.004 0-0.006 0-33.932 27.508-61.44 61.44-61.44 20.128 0 37.995 9.679 49.201 24.636l0.114 0.16c1.704-0.844 3.473-1.589 5.317-2.212 40.346-13.435 66.912-35.389 81.215-67.109 18.891-41.845 13.394-92.766 5.014-129.204-39.518 21.438-79.978 31.785-119.824 30.351-60.342-2.187-118.596-33.169-168.46-89.58-2.212-2.499-4.014-5.202-5.505-8.028-3.894 0.877-8.367 1.381-12.957 1.384h-0.003c-33.939 0-61.44-29.549-61.44-63.488 0-33.931 27.501-59.392 61.44-59.392 28.015 0.005 51.648 18.757 59.039 44.393l0.107 0.434c26.624 4.088 47.21-0.737 64.455-15.073 43.516-36.159 67.068-129.057 70.148-276.275-20.138-5.189-37.099-16.566-49.192-31.95l-0.148-0.195c-12.157-15.293-19.505-34.884-19.505-56.192 0-7.745 0.971-15.264 2.798-22.44l-0.135 0.628 31.924-130.253c4.534-18.054 20.621-31.21 39.78-31.212h527.155c19.16 0.001 35.246 13.157 39.72 30.929l0.060 0.283 31.916 130.253c6.717 27.394 0.573 55.812-16.835 78.004-11.902 15.144-28.249 26.31-47.063 31.567l-0.639 0.152c-0.253 8.329-0.397 18.127-0.397 27.959 0 6.844 0.070 13.672 0.209 20.483l-0.016-1.018c0.015 0.408 0.023 0.887 0.023 1.368 0 22.622-18.338 40.96-40.96 40.96-22.489 0-40.745-18.124-40.958-40.563v-0.020c-0.319-14.639-0.279-30.007 0.082-45.924h-94.814c-2.048 54.010-15.507 112.173-37.7 168.452 12.853 46.481 40.468 92.766 75.932 127.14 36.323 35.217 77.414 54.616 115.671 54.616 27.279 0 49.93-4.366 70.746-14.508-7.070-2.761-13.885-5.98-20.447-9.65-34.21-19.153-60.998-50.25-79.585-92.439-2.2-4.864-3.482-10.546-3.482-16.527 0-22.624 18.34-40.965 40.965-40.965 16.643 0 30.967 9.925 37.378 24.178l0.104 0.259c21.791 49.439 55.689 69.738 109.273 65.126 6.128-27.978 30.697-48.611 60.086-48.611 33.932 0 61.44 27.508 61.44 61.44s-27.506 61.439-61.437 61.44v0zM237.396 548.95c-12.876 10.81-27.887 19.616-44.235 25.664l-1.042 0.338c19.399 11.518 39.182 17.752 59.228 18.481 55.755 1.991 106.136-34.865 138.592-66.159 81.273-78.389 141.206-208.445 146.252-314.802h-199.066c-2.359 120.029-18.579 269.042-99.729 336.478zM770.859 130.552c3.793 0 6.136-1.95 7.422-3.604 1.27-1.622 2.597-4.317 1.72-7.946l-24.273-99.041h-462.881l-24.273 99.041c-0.185 0.682-0.291 1.464-0.291 2.271 0 2.158 0.759 4.139 2.024 5.691l-0.013-0.016c1.286 1.655 3.629 3.604 7.422 3.604h493.15zM627.007 590.811c-10.143-7.871-19.142-15.702-27.687-23.998l0.080 0.077c-26.264-25.461-49.193-56.066-67.109-88.932-24.609 40.387-53.527 77.447-85.492 108.282-2.367 2.284-4.888 4.654-7.439 6.993l-0.303 0.274c14.148 45.179 34.046 135.741-1.016 213.918-11.592 25.854-27.91 48.005-48.783 66.355 11.566 2.734 24.846 4.301 38.493 4.301 0.001 0 0.001 0 0.002 0v0c60.211-0.41 102.457-33.276 127.295-60.768 51.012-56.467 79.151-145.187 71.959-226.509z" />
<glyph unicode="&#xe902;" glyph-name="payment" d="M565.333 874.667c182.613 0 330.667-148.053 330.667-330.667 0-76.096-25.707-146.197-68.907-202.069 2.191 0.171 4.743 0.268 7.319 0.268 42.596 0 78.969-26.647 93.357-64.181l0.231-0.685c3.651-9.449 5.766-20.382 5.766-31.81 0-37.024-22.202-68.862-54.019-82.927l-0.579-0.229-4.693-1.877-265.643-97.877c-19.725-7.492-42.533-11.83-66.354-11.83-15.61 0-30.785 1.863-45.314 5.378l1.311-0.268-306.475 72.107h-98.133c-4.713 0-8.533 3.821-8.533 8.533v46.933c0 0 0 0 0 0 0 4.705 3.808 8.521 8.511 8.533h105.601l313.685-73.813c8.801-2.16 18.905-3.398 29.299-3.398 13.686 0 26.87 2.148 39.234 6.125l-0.906-0.252 5.952 2.005 265.792 97.92c13.76 5.184 20.736 20.523 15.573 34.283-5.268 13.753-18.361 23.341-33.693 23.341-2.229 0-4.41-0.203-6.527-0.59l0.221 0.034-3.157-0.704-155.008-42.283h-192.043c-4.713 0-8.533 3.821-8.533 8.533v46.933c0 4.693 3.84 8.533 8.533 8.533h66.133c17.666 0.009 31.984 14.332 31.984 32 0 16.586-12.618 30.224-28.778 31.84l-0.134 0.011-3.072 0.149h-450.155c-4.713 0-8.533 3.821-8.533 8.533v0 46.933c0.021 4.693 3.84 8.533 8.555 8.533l162.24-0.021c-13.574 34.732-21.44 74.944-21.44 116.993 0 0.127 0 0.254 0 0.381v-0.020c0 182.613 148.053 330.667 330.667 330.667zM565.333 810.667c-147.285 0-266.667-119.381-266.667-266.667 0-42.112 9.771-81.92 27.136-117.333h207.531v42.667h-76.8c-4.713 0-8.533 3.821-8.533 8.533v0 46.933c0 4.693 3.84 8.533 8.533 8.533h76.779v21.333h-76.779c-4.713 0-8.533 3.821-8.533 8.533v46.933c0 4.693 3.84 8.533 8.533 8.533h65.387l-56.149 56.128c-1.546 1.545-2.503 3.679-2.503 6.037s0.956 4.493 2.503 6.037v0l33.195 33.195c1.543 1.54 3.674 2.492 6.027 2.492s4.483-0.952 6.027-2.492v0l54.315-54.315 54.315 54.315c1.543 1.54 3.674 2.492 6.027 2.492s4.483-0.952 6.027-2.492v0l33.195-33.195c1.546-1.545 2.503-3.679 2.503-6.037s-0.956-4.493-2.503-6.037l-56.171-56.128h65.408c4.693 0 8.533-3.84 8.533-8.533v-46.933c0-4.713-3.821-8.533-8.533-8.533h-76.821v-21.333h76.821c4.693 0 8.533-3.84 8.533-8.533v-46.933c0-4.713-3.821-8.533-8.533-8.533h-76.821v-58.816c25.917-17.444 42.739-46.67 42.739-79.825 0-11.489-2.020-22.505-5.724-32.715l0.212 0.667 26.795 0.021 21.397 5.824c89.121 44.414 149.269 134.9 149.269 239.435 0 0.026 0 0.052 0 0.079v-0.004c0 147.285-119.381 266.667-266.667 266.667z" />
<glyph unicode="&#xe903;" glyph-name="php_elephant" d="M369.44 277.824c-4.512 27.136-18.080 49.76-45.248 58.816-9.024 4.512-22.592 13.568-31.68 18.080-13.536 4.512-27.104 9.056-36.16 13.568s-18.080 0-27.136-9.056c-4.544-9.024 0-18.080 4.512-22.592 4.544-9.056 9.056-13.568 18.112-22.624 9.024-13.568 18.080-22.624 31.68-36.192 9.024-13.568 18.080-22.624 13.536-40.704-4.512-31.68-18.080-63.36-40.704-85.952-4.512-4.512-9.056-4.512-9.056-4.512-13.568 0-31.68 9.024-40.704 18.080-13.568 13.568-9.056 27.136 4.512 36.16 4.871 0.337 8.736 4.214 9.054 9.059l0.002 0.029c9.056 9.024 13.568 18.080 9.056 31.68-4.512 4.48-4.512 9.024-9.056 13.536-18.080 18.112-40.704 36.192-63.328 54.272-58.784 45.248-85.952 99.52-90.464 162.88-4.512 72.352 13.568 140.192 49.76 203.52 13.568 22.624 31.68 45.248 58.816 58.816 18.080 9.056 36.16 13.568 54.272 18.080 49.76 13.6 104.032 22.624 158.304 13.6 45.248-9.056 81.44-31.68 95.008-76.928 9.056-31.648 13.568-58.784 9.056-90.464-4.544-63.328-54.304-117.6-113.088-135.68-27.136-9.056-40.704-4.544-54.304 18.080-9.024 13.568-22.592 31.68-31.68 49.76v4.512c0 4.544-4.48 4.544-4.48 9.056 4.48-27.136 9.024-54.272 22.592-76.896 9.056-13.568 18.112-22.624 36.192-22.624 58.816-4.512 104.032 13.568 140.224 58.816 36.192 49.76 45.248 108.544 36.192 171.872 0 13.568-4.512 22.624-9.024 36.192 0 9.056 0 13.568 9.024 18.112 4.544 0 9.056 0 9.056 4.512 45.248 9.056 94.976 13.568 140.224 9.056 54.272-4.544 104.032-18.112 149.28-49.76 72.384-45.248 117.6-113.088 140.224-194.528 4.512-13.568 4.512-22.592 4.512-36.16 0-9.056-4.512-9.056-13.568-4.544-9.024 4.544-13.568 13.568-18.080 18.112-4.544 4.512-9.056 13.568-13.568 18.080-4.544 4.512-9.056 4.512-9.056 0s-4.512-9.056-4.512-13.568c-13.568-45.248-31.68-85.952-63.36-117.6-4.48-4.544-9.024-13.568-9.024-18.112 0-18.080-4.512-36.16 0-54.272 4.512-36.16 9.056-76.896 13.568-113.088 4.512-22.624-4.512-31.68-22.624-40.704-13.568-4.512-27.136-9.056-45.216-9.056h-72.384c0 27.136 0 54.272-22.624 67.84 4.512 18.112 9.056 36.192 13.568 58.816 4.544 18.112 0 31.68-9.056 45.248-9.024 13.568-22.592 13.568-36.16 9.024-36.192-22.592-72.384-22.592-113.088-9.024-18.112 4.512-31.68 4.512-40.736-13.568-9.024-18.112-13.568-36.192-13.568-54.304 0-22.592 4.544-49.728 9.056-72.352 0-13.568 0-18.112-13.568-22.624-16.581-4.77-35.626-7.513-55.312-7.513-12.419 0-24.583 1.092-36.402 3.185l1.25-0.183h-4.512c0 27.136 0 54.272-31.68 67.84 18.112 18.080 18.112 49.76 13.568 76.896zM183.968 381.856c4.544 4.544 9.056 9.056 9.056 18.112 4.512 13.568-9.056 36.16-22.624 40.704-9.024 4.512-13.568 0-18.080-4.544-13.568-13.568-22.624-27.136-36.192-40.704 0-4.512-4.512-4.512-4.512-9.024-4.544-9.056 0-18.112 9.024-18.112 4.544 0 13.568 0 18.112-4.512 18.080 0 31.68 4.512 45.216 18.080zM183.968 531.136c0 9.056-9.024 18.080-18.080 18.080s-22.624-9.024-18.080-22.592c0-9.056 9.024-18.112 22.592-18.112 4.544 4.544 13.568 13.568 13.568 22.624z" />
<glyph unicode="&#xe904;" d="M312.2 596.8c-50.9-38.6-124.1-28.5-162.7 22.5l-56.7 74.9c-38.6 50.9-28.5 124.1 22.5 162.7 50.9 38.6 124.1 28.5 162.7-22.5l56.7-74.9c38.6-50.9 28.5-124.1-22.5-162.7z" />
<glyph unicode="&#xe905;" d="M242.5 563.4c-5.9 0-11.7 0.4-17.6 1.2-33.5 4.6-63 21.9-83.3 48.7l-56.7 74.9c-42 55.4-31 134.7 24.4 176.7 26.8 20.3 59.9 28.9 93.4 24.3s63-21.9 83.3-48.7l56.7-74.9c20.3-26.8 28.9-59.9 24.3-93.4s-21.9-63-48.7-83.3v0c-22.1-16.8-48.4-25.5-75.8-25.5zM185 870.3c-23 0-45.2-7.4-63.7-21.4-46.6-35.3-55.9-102-20.5-148.7l56.7-74.9c17-22.5 41.9-37 70.1-40.9s56.1 3.4 78.6 20.4c22.5 17 37 41.9 40.9 70.1s-3.4 56.1-20.4 78.6l-56.7 74.9c-17 22.5-41.9 37-70.1 40.9-5 0.7-9.9 1-14.9 1z" />
<glyph unicode="&#xe906;" d="M279.9 639.6c-18.3-13.9-44.6-10.2-58.5 8.1l-66 87.1c-13.9 18.3-10.2 44.6 8.1 58.5s44.6 10.2 58.5-8.1l66-87.1c13.8-18.4 10.2-44.7-8.1-58.5z" />
<glyph unicode="&#xe907;" d="M254.8 621.1c-2.4 0-4.8 0.2-7.2 0.5-13.7 1.9-25.9 9-34.2 20l-66 87.1c-8.3 11-11.9 24.6-10 38.3s9 25.9 20 34.2c11 8.3 24.6 11.9 38.3 10s25.9-9 34.2-20l66-87.1c8.3-11 11.9-24.6 10-38.3s-9-25.9-20-34.2c-9-6.9-19.9-10.5-31.1-10.5zM188.7 791.6c-6.7 0-13.4-2.1-19.1-6.4-6.7-5.1-11.1-12.5-12.2-21-1.2-8.4 1-16.8 6.1-23.5l66-87.1c5.1-6.7 12.5-11.1 21-12.2 8.4-1.2 16.8 1 23.5 6.1s11.1 12.5 12.2 21c1.2 8.4-1 16.8-6.1 23.5l-66 87.1c-6.3 8.2-15.8 12.5-25.4 12.5z" />
<glyph unicode="&#xe908;" d="M710.4 596.8c50.9-38.6 124.1-28.5 162.7 22.5l56.7 74.9c38.6 50.9 28.5 124.1-22.5 162.7-50.9 38.6-124.1 28.5-162.7-22.5l-56.6-74.9c-38.6-50.9-28.5-124.1 22.4-162.7z" />
<glyph unicode="&#xe909;" d="M780.1 563.4c-27.3 0-53.7 8.8-75.7 25.5-55.4 42-66.4 121.2-24.4 176.7l56.7 74.9c42 55.4 121.2 66.4 176.7 24.4 55.4-42 66.4-121.2 24.4-176.7l-56.7-74.9c-20.3-26.8-49.8-44-83.3-48.7-5.9-0.8-11.8-1.2-17.7-1.2zM837.4 870.4c-32.1 0-63.9-14.5-84.7-42l-56.7-74.9c-35.3-46.6-26.1-113.3 20.5-148.7 22.5-17 50.4-24.3 78.6-20.4s53.1 18.4 70.1 40.9l56.7 74.9c35.3 46.6 26.1 113.3-20.5 148.7-19.2 14.5-41.7 21.5-64 21.5z" />
<glyph unicode="&#xe90a;" d="M742.8 639.6c18.3-13.9 44.6-10.2 58.5 8.1l66 87.1c13.9 18.3 10.2 44.6-8.1 58.5s-44.6 10.2-58.5-8.1l-66-87.1c-13.8-18.4-10.2-44.7 8.1-58.5z" />
<glyph unicode="&#xe90b;" d="M767.8 621.1c-11.2 0-22 3.6-31.1 10.5-11 8.3-18.1 20.5-20 34.2s1.6 27.3 10 38.3l66 87.1c17.2 22.7 49.7 27.2 72.5 10 11-8.3 18.1-20.4 20-34.2 1.9-13.7-1.6-27.3-10-38.3l-66-87.1c-8.3-11-20.5-18.1-34.2-20-2.4-0.3-4.8-0.5-7.2-0.5zM834 791.6c-9.6 0-19.1-4.3-25.3-12.6l-66-87.1c-10.6-13.9-7.8-33.9 6.1-44.5 6.7-5.1 15.1-7.3 23.5-6.1s15.9 5.5 21 12.2l66 87.1c5.1 6.7 7.3 15.1 6.1 23.5s-5.5 15.9-12.2 21c-5.8 4.4-12.5 6.5-19.2 6.5z" />
<glyph unicode="&#xe90c;" d="M490.8 567.1c0-10.825 9.178-19.6 20.5-19.6s20.5 8.775 20.5 19.6v0c0 10.825-9.178 19.6-20.5 19.6s-20.5-8.775-20.5-19.6v0z" />
<glyph unicode="&#xe90d;" d="M885.8 465.8c0.3 6.3 0.5 12.7 0.5 19.1 0 199.6-163.3 377.4-362.9 377.4h-24.2c-199.6 0-362.9-177.8-362.9-377.4 0-6.4 0.2-12.8 0.5-19.1-58.1-46-92.4-74-92.4-135.7 0-152.3 209-319.3 466.9-319.3s466.9 167 466.9 319.3c0 61.7-34.3 89.7-92.4 135.7z" />
<glyph unicode="&#xe90e;" d="M511.3 0.7c-63.1 0-125.3 9.7-184.8 29-55.7 18-106.6 43.4-151.2 75.5-42.9 30.8-78.4 67.3-102.6 105.3-25 39.3-38.3 80.6-38.3 119.5 0 65.8 36.5 96.2 92.2 140.4-0.2 4.9-0.3 9.7-0.3 14.5 0 50.2 9.9 99.6 29.4 147 18.9 45.9 45.8 87.4 80 123.4 34.5 36.4 74.3 65 118.5 85.2 46.3 21.1 95.1 31.8 145.1 31.8h24.2c50 0 98.8-10.7 145.1-31.8 44.2-20.1 84-48.8 118.5-85.2 34.2-36 61.1-77.6 80-123.4 19.5-47.3 29.4-96.8 29.4-147 0-4.7-0.1-9.6-0.3-14.5 55.7-44.1 92.2-74.6 92.2-140.4 0-38.9-13.2-80.2-38.3-119.5-24.3-38.1-59.8-74.5-102.7-105.4-44.6-32.1-95.5-57.5-151.2-75.5-59.6-19.1-121.7-28.9-184.9-28.9zM499.2 852.3c-47.1 0-93.1-10.1-136.8-30-41.8-19.1-79.6-46.2-112.3-80.7-32.5-34.2-58-73.7-76-117.3-18.5-44.9-27.9-91.8-27.9-139.4 0-6 0.2-12.3 0.5-18.6l0.3-5.2-4.1-3.2c-27.3-21.6-50.8-40.2-66.3-60.2s-22.4-40.8-22.4-67.7c0-35.1 12.1-72.7 35.1-108.8 22.9-36 56.6-70.5 97.5-99.9 42.9-30.9 91.9-55.3 145.6-72.7 57.5-18.6 117.6-28 178.7-28 61 0 121.1 9.4 178.7 28 53.7 17.4 102.7 41.8 145.6 72.7 40.9 29.4 74.6 63.9 97.5 99.9 23 36.1 35.1 73.7 35.1 108.8 0 26.8-6.9 47.7-22.4 67.7s-39 38.6-66.3 60.2l-4.1 3.2 0.3 5.2c0.3 6.3 0.5 12.6 0.5 18.6 0 47.6-9.4 94.4-27.9 139.4-18 43.6-43.5 83.1-76 117.3-32.7 34.5-70.5 61.7-112.3 80.7-43.6 19.9-89.6 30-136.8 30h-23.8z" />
<glyph unicode="&#xe90f;" d="M311.9 450.8c0-29.382 23.818-53.2 53.2-53.2s53.2 23.818 53.2 53.2v0c0 29.382-23.818 53.2-53.2 53.2s-53.2-23.818-53.2-53.2v0z" />
<glyph unicode="&#xe910;" d="M319.2 463.7c0-10.825 9.178-19.6 20.5-19.6s20.5 8.775 20.5 19.6v0c0 10.825-9.178 19.6-20.5 19.6s-20.5-8.775-20.5-19.6v0z" />
<glyph unicode="&#xe911;" d="M604.4 450.8c0-29.382 23.818-53.2 53.2-53.2s53.2 23.818 53.2 53.2v0c0 29.382-23.818 53.2-53.2 53.2s-53.2-23.818-53.2-53.2v0z" />
<glyph unicode="&#xe912;" d="M611.8 463.7c0-10.825 9.178-19.6 20.5-19.6s20.5 8.775 20.5 19.6v0c0 10.825-9.178 19.6-20.5 19.6s-20.5-8.775-20.5-19.6v0z" />
<glyph unicode="&#xe913;" d="M430.1 261.1c0-37.39 36.354-67.7 81.2-67.7s81.2 30.31 81.2 67.7v0c0 37.39-36.354 67.7-81.2 67.7s-81.2-30.31-81.2-67.7v0z" />
<glyph unicode="&#xe914;" d="M571.6 106.7c-18.1 0-35.1 5.3-47.9 14.9-14.4 10.9-22.4 26.6-22.4 44.3 0 5.5 4.5 10 10 10s10-4.5 10-10c0-25.8 25.3-39.3 50.2-39.3 25.7 0 46.6 20.9 46.6 46.6 0 5.5 4.5 10 10 10s10-4.5 10-10c0.1-36.6-29.8-66.5-66.5-66.5z" />
<glyph unicode="&#xe915;" d="M451.1 106.7c-36.7 0-66.6 29.9-66.6 66.6 0 5.5 4.5 10 10 10s10-4.5 10-10c0-25.7 20.9-46.6 46.6-46.6 25 0 50.2 13.5 50.2 39.3v63.7c0 5.5 4.5 10 10 10s10-4.5 10-10v-63.7c0-17.7-7.9-33.5-22.4-44.3-12.7-9.7-29.7-15-47.8-15z" />
<glyph unicode="&#xe916;" d="M620.4 733.5c-1.6 0-3.2 0.4-4.7 1.2-31.9 16.9-68 25.8-104.4 25.8s-72.5-8.9-104.4-25.8c-4.9-2.6-10.9-0.7-13.5 4.2s-0.7 10.9 4.2 13.5c34.8 18.4 74.1 28.1 113.7 28.1s78.9-9.7 113.7-28.1c4.9-2.6 6.8-8.6 4.2-13.5-1.7-3.5-5.2-5.4-8.8-5.4zM585.8 686.7c-1.4 0-2.8 0.3-4.2 0.9-22.1 10.3-45.7 15.5-70.2 15.5s-48.2-5.2-70.2-15.5c-5-2.3-11-0.2-13.3 4.9-2.3 5-0.2 11 4.9 13.3 24.7 11.5 51.2 17.3 78.7 17.3s53.9-5.8 78.7-17.3c5-2.3 7.2-8.3 4.9-13.3-1.9-3.6-5.6-5.8-9.3-5.8zM551.5 640.4c-1.1 0-2.2 0.2-3.3 0.6-11.8 4.2-24.2 6.3-36.8 6.3s-25-2.1-36.8-6.3c-5.2-1.8-10.9 0.9-12.8 6.1-1.8 5.2 0.9 10.9 6.1 12.8 13.9 4.9 28.6 7.4 43.5 7.4s29.5-2.5 43.5-7.4c5.2-1.8 7.9-7.5 6.1-12.8-1.5-4.1-5.4-6.7-9.5-6.7z" />
<glyph unicode="&#xe917;" d="M501.3 862.3h20v-208.4h-20z" />
<glyph unicode="&#xe918;" d="M239.7 361.2c-1.3 0-2.6 0.3-3.9 0.8-26.8 11.5-93.8 88.5-101.3 97.2-3.6 4.2-3.1 10.5 1 14.1 4.2 3.6 10.5 3.1 14.1-1 27.4-31.7 77.1-84.7 94.1-91.9 5.1-2.2 7.4-8.1 5.3-13.1-1.8-3.8-5.5-6.1-9.3-6.1zM221.5 266.9h-0.6c-67.4 3.7-165.4 72.9-169.5 75.9-4.5 3.2-5.6 9.4-2.4 13.9s9.4 5.6 13.9 2.4c1-0.7 97.4-68.8 159-72.2 5.5-0.3 9.7-5 9.4-10.5-0.1-5.4-4.5-9.5-9.8-9.5z" />
<glyph unicode="&#xe919;" d="M783 361.2c-3.9 0-7.6 2.3-9.2 6.1-2.2 5.1 0.2 11 5.3 13.1 17 7.3 66.7 60.2 94 91.9 3.6 4.2 9.9 4.6 14.1 1s4.6-9.9 1-14.1c-7.6-8.7-74.6-85.8-101.3-97.2-1.2-0.5-2.6-0.8-3.9-0.8zM801.1 266.9c-5.3 0-9.7 4.1-10 9.4-0.3 5.5 3.9 10.2 9.4 10.5 61.7 3.4 158.1 71.5 159 72.2 4.5 3.2 10.7 2.1 13.9-2.4s2.1-10.7-2.4-13.9c-4.1-2.9-102.1-72.1-169.5-75.9 0 0.1-0.2 0.1-0.4 0.1z" />
<glyph unicode="&#xe91a;" glyph-name="violence" d="M530.567 748v-240.367h165.501l-186.007-359.633v259.483h-159.684l180.19 340.517zM252 649.335l33.44 33.662 81.21-81.75-33.44-33.66-81.21 81.747zM772 649.335l-81.21-81.749-33.44 33.662 81.21 81.749 33.44-33.662zM366.65 302.504l-81.21-81.75-33.44 33.663 81.21 81.749 33.44-33.661zM650.594 302.504l33.44 33.66 81.21-81.748-33.44-33.661-81.21 81.749z" />
<glyph unicode="&#xe91b;" horiz-adv-x="1503" d="M475.125 372.312c0-228.227 185.014-413.241 413.241-413.241s413.241 185.014 413.241 413.241v0c0 228.227-185.014 413.241-413.241 413.241s-413.241-185.014-413.241-413.241v0z" />
<glyph unicode="&#xe91c;" horiz-adv-x="1503" d="M1160.531 467.42c18.979 11.677 37.359 23.354 55.068 34.995-4.445 45.579-15.698 89.922-33.619 132.255-15.24 36.054-34.889 69.673-58.631 100.435-19.367-5.574-39.158-11.571-59.337-17.956 58.208-67.415 94.191-154.48 96.519-249.729zM762.637 59.471c-84.983 0-163.829 26.776-228.563 72.354-22.013-7.796-43.709-15.205-65.052-22.154 34.995-29.598 74.012-53.587 116.416-71.543 56.127-23.742 115.745-35.771 177.164-35.771s121.037 12.030 177.164 35.771c54.222 22.93 102.869 55.738 144.673 97.542s74.612 90.452 97.542 144.673c23.742 56.127 35.771 115.745 35.771 177.164 0 1.834 0 3.634-0.035 5.433-18.803-12.065-38.241-24.2-58.278-36.301-15.769-205.103-187.712-367.168-396.801-367.168zM364.601 457.507c0 219.461 178.539 398.036 398.036 398.036 106.714 0 203.728-42.192 275.27-110.807 20.884 6.773 41.381 13.159 61.418 19.085-4.798 5.292-9.772 10.477-14.852 15.557-41.804 41.804-90.452 74.612-144.673 97.542-56.127 23.742-115.745 35.771-177.164 35.771s-121.037-12.030-177.164-35.771c-54.222-22.93-102.869-55.738-144.673-97.542-41.804-41.839-74.612-90.522-97.542-144.708-23.742-56.127-35.771-115.745-35.771-177.164 0-17.392 0.952-34.607 2.893-51.646 17.709 11.077 35.948 22.19 54.68 33.267-0.317 6.068-0.459 12.206-0.459 18.38zM368.552 401.31c-17.992-10.795-35.524-21.625-52.493-32.385 5.962-30.303 15.063-59.901 27.199-88.617 22.789-53.904 55.386-102.34 96.837-143.967 20.285 6.456 40.922 13.3 61.912 20.567-70.731 61.418-119.661 147.319-133.455 244.403z" />
<glyph unicode="&#xe91d;" horiz-adv-x="1503" d="M502.006 156.908c10.23-8.89 20.955-17.251 32.067-25.082 94.896 33.619 195.79 74.929 297.777 122.131 118.638 54.892 230.221 113.84 327.622 172.683 0.776 10.195 1.199 20.461 1.199 30.868 0 3.316-0.035 6.632-0.141 9.948-100.576-61.947-217.803-124.424-343.074-182.385-108.514-50.235-215.687-93.697-315.451-128.163zM1498.56 772.183c-6.844 14.781-19.897 26.070-38.77 33.549-16.087 6.35-36.936 10.054-61.912 10.971-46.954 1.729-108.937-5.997-184.219-22.93-36.089-8.114-74.365-18.168-114.334-29.986 8.431-9.278 16.475-18.838 24.059-28.681 34.078 9.807 66.78 18.238 97.825 25.223 65.898 14.852 120.72 22.366 163.194 22.366 4.198 0 8.255-0.071 12.206-0.212 38.982-1.446 64.134-10.195 70.837-24.659s-2.928-39.334-27.058-69.955c-27.234-34.607-71.119-74.753-130.386-119.379-28.786-21.66-60.395-43.779-94.367-66.039 1.27-13.053 1.976-26.211 2.152-39.476 40.992 26.352 78.845 52.528 112.853 78.104 61.63 46.39 107.632 88.652 136.736 125.553 15.487 19.65 26.141 37.923 31.714 54.327 6.491 19.191 6.315 36.442-0.529 51.223zM440.094 136.341c-55.809-17.745-108.725-32.314-157.479-43.321-72.389-16.298-131.409-23.742-175.4-22.119-38.982 1.446-64.134 10.195-70.837 24.659s2.928 39.334 27.058 69.955c27.234 34.607 71.119 74.753 130.386 119.379 36.512 27.481 77.54 55.633 122.237 83.996-2.399 12.206-4.304 24.518-5.715 36.9-50.412-31.503-96.519-62.9-137.124-93.485-61.63-46.39-107.632-88.652-136.736-125.553-15.487-19.65-26.141-37.923-31.714-54.327-6.526-19.226-6.35-36.477 0.494-51.258s19.897-26.070 38.77-33.549c16.087-6.35 36.936-10.054 61.912-10.971 4.304-0.176 8.749-0.247 13.3-0.247 45.155 0 102.552 7.796 170.884 23.177 55.068 12.418 115.252 29.28 178.892 50.059-9.737 8.22-19.156 16.898-28.257 26-0.212 0.247-0.423 0.459-0.67 0.706z" />
<glyph unicode="&#xe91e;" horiz-adv-x="1503" d="M368.552 401.31c-1.764 12.418-2.963 25.047-3.528 37.782-18.732-11.112-36.971-22.19-54.68-33.267 1.411-12.418 3.316-24.694 5.715-36.9 17.004 10.76 34.501 21.59 52.493 32.385zM1064.083 717.15c20.179 6.421 39.969 12.418 59.337 17.956-7.62 9.842-15.628 19.438-24.059 28.681-20.073-5.927-40.569-12.277-61.418-19.085 9.102-8.749 17.85-17.956 26.141-27.552zM1160.531 467.42c0.071-3.316 0.141-6.597 0.141-9.948 0-10.372-0.388-20.673-1.199-30.868 20.038 12.135 39.511 24.236 58.278 36.301-0.141 13.264-0.882 26.423-2.152 39.476-17.709-11.606-36.089-23.283-55.068-34.96zM502.006 156.908c-20.99-7.267-41.627-14.111-61.912-20.567 0.247-0.247 0.459-0.459 0.67-0.706 9.102-9.102 18.521-17.745 28.257-26 21.308 6.95 43.003 14.358 65.052 22.154-11.112 7.832-21.837 16.228-32.067 25.118zM424.713 443.784c-1.658 35.419 1.552 70.696 9.525 104.915 17.074 72.954 59.407 125.306 82.161 153.387l1.199 1.482 24.588-19.897-1.199-1.517c-22.648-27.975-60.536-74.824-75.952-140.722-7.338-31.362-10.266-63.711-8.749-96.202l-31.573-1.446zM431.619 381.961l29.869 10.452 15.998-45.719-29.868-10.452zM634.544 426.639h-29.104l-5.68-22.613h-24.059l30.55 98.389h28.293l30.55-98.389h-24.871l-5.68 22.613zM630.064 444.878l-2.117 8.325c-2.646 9.772-5.151 21.555-7.796 31.609h-0.529c-2.364-10.301-5.009-21.837-7.549-31.609l-2.117-8.325h20.108zM669.328 452.674c0 32.808 21.943 51.576 46.954 51.576 12.841 0 23.142-5.962 29.88-12.841l-12.418-15.063c-4.904 4.48-10.054 7.655-17.074 7.655-12.7 0-23.142-11.359-23.142-30.55 0-19.579 8.996-30.938 22.895-30.938 7.796 0 14.146 3.951 18.768 8.996l12.418-14.817c-8.325-9.666-19.297-14.534-32.138-14.534-24.976 0-46.143 17.18-46.143 50.517zM751.877 452.674c0 32.808 22.084 51.576 48.401 51.576 14.428 0 24.73-6.068 31.468-12.841l-12.559-15.063c-4.762 4.374-9.913 7.655-18.133 7.655-14.534 0-25.012-11.359-25.012-30.55 0-19.579 8.714-30.938 26.987-30.938 3.563 0 7.267 0.917 9.384 2.505v15.875h-15.593v19.297h36.653v-46.037c-6.879-6.597-19.050-12.030-32.808-12.030-27.375 0.035-48.789 17.215-48.789 50.553zM853.3 502.416h24.059l24.483-47.095 9.666-21.837h0.67c-1.341 10.442-3.175 24.588-3.175 36.371v32.526h22.472v-98.354h-24.059l-24.341 47.484-9.666 21.555h-0.67c1.058-10.971 3.034-24.483 3.034-36.371v-32.667h-22.472v98.389z" />
<glyph unicode="&#xe91f;" d="M512 919.040c-260.096 0-471.040-210.944-471.040-471.040s210.944-471.040 471.040-471.040 471.040 210.944 471.040 471.040-210.944 471.040-471.040 471.040zM512 306.688c-78.044 0-141.312 63.268-141.312 141.312s63.268 141.312 141.312 141.312c78.044 0 141.312-63.268 141.312-141.312v0c0-78.044-63.268-141.312-141.312-141.312v0z" />
<glyph unicode="&#xe920;" d="M962.99 487.67c-21.504 45.445-25.641 77.517-26.317 84.357-0.039 0.39-0.061 0.843-0.061 1.3s0.022 0.911 0.066 1.357l-0.004-0.057c9.667 120.832-53.924 76.861-66.847 137.83-7.397 34.879-30.194 63.278-60.775 78.187l-0.665 0.293c-2.615 1.268-4.744 3.186-6.23 5.549l-0.036 0.062c-19.558 31.519-45.056 39.629-56.914 41.718-4.164 0.757-7.673 3.106-9.94 6.38l-0.033 0.051c-23.142 33.505-86.753 33.649-104.448 32.993-0.166-0.007-0.361-0.010-0.556-0.010-3.054 0-5.895 0.913-8.265 2.482l0.056-0.035c-92.037 60.027-63.959-17.039-150.344 13.578-58.388 20.705-92.692 0.41-109.076-15.421-8.341-7.921-19.614-12.825-32.032-12.923h-0.019c-23.695-0.43-35.574-11.039-41.472-20.582-5.712-9.172-14.086-16.218-24.035-20.138l-0.336-0.117c-22.077-8.479-29.184-20.869-29.184-20.869-34.058-62.587-24.33-19.128-74.383-60.15-22.939-18.486-39.068-44.61-44.531-74.462l-0.116-0.761c-2.585-14.122-8.841-26.479-17.737-36.423l0.063 0.071c-37.908-42.762-34.591-83.395-28.672-104.735 0.943-3.389 1.484-7.281 1.484-11.299 0-7.569-1.922-14.69-5.306-20.899l0.114 0.229c-35.717-67.4 14.049-69.96 3.707-132.014-11.141-66.744 20.029-58.86 28.836-76.472s-15.053-61.174 25.498-79.483c35.246-15.913 59.535-51.2 65.311-60.232 0.805-1.248 1.451-2.694 1.86-4.236l0.024-0.106c19.19-72.52 67.584-21.975 102.687-77.722 27.709-44.012 86.016-48.538 110.141-48.415 0.013 0 0.029 0 0.045 0 6.983 0 13.398-2.432 18.444-6.495l-0.057 0.044c35.369-28.119 77.824-16.896 100.925-7.168 5.467 2.439 11.848 3.86 18.56 3.86 5.077 0 9.963-0.813 14.538-2.315l-0.329 0.094c53.555-17.9 110.592 11.203 136.274 27.259 8.089 5.024 17.568 8.706 27.709 10.459l0.471 0.067c39.506 7.086 75.981 47.514 93.819 70.41 7.149 8.979 16.351 16.025 26.915 20.477l0.447 0.167c49.603 20.849 61.911 85.115 64.451 105.37 2.785 22.241 64.655 60.477 52.142 120.955s28.467 76.493 4.137 127.939zM589.169 325.652c-6.267-1.393-36.372-24.125-80.527-34.918-47.104-11.51-98.406 57.836-114.36 62.996-23.409 7.578-60.662 48.353-32.87 106.066 4.566 9.377 7.758 20.276 8.974 31.766l0.037 0.429c1.782 16.855 7.926 41.329 27.914 52.060 31.99 17.142 64.205 62.444 110.592 62.341 44.605-0.123 92.692-51.302 128.737-65.352 33.751-13.189 15.974-74.752 20.152-87.613s55.931-100.086-68.649-127.775z" />
<glyph unicode="&#xe921;" d="M380.928 682.824c50.267 26.754 109.92 42.464 173.242 42.464 23.3 0 46.103-2.127 68.225-6.198l-2.302 0.352c37.089-6.595 56.771 42.537 25.088 62.935-49.446 32.337-110.003 51.574-175.052 51.574-173.8 0-315.527-137.326-322.591-309.392l-0.021-0.64c-1.516-37.663 49.992-49.807 65.925-15.667 35.805 75.63 93.767 135.876 165.434 173.588l2.051 0.984z" />
<glyph unicode="&#xe922;" d="M575.734 261.222c-21.885-6.582-47.033-10.37-73.067-10.37-34.668 0-67.768 6.718-98.067 18.924l1.764-0.628c-24.576 9.646-44.892-21.381-25.948-39.793 40.716-39.638 96.394-64.083 157.782-64.083 106.015 0 195.002 72.905 219.561 171.314l0.329 1.558c6.144 25.661-27.464 41.124-43.131 19.866-34.11-45.962-81.933-80.034-137.365-96.321l-1.858-0.468z" />
<glyph unicode="&#xe923;" d="M341.381 705.72l-21.197-75.448c-0.265-0.895-0.418-1.924-0.418-2.988 0-4.45 2.668-8.277 6.492-9.969l0.070-0.027 50.176-21.279c1.257-0.55 2.723-0.87 4.262-0.87 4.184 0 7.817 2.363 9.635 5.828l0.029 0.060 35.779 69.018c0.773 1.458 1.228 3.188 1.228 5.024 0 3.517-1.667 6.645-4.254 8.638l-0.026 0.019c-13.251 10.24-42.885 30.044-71.291 30.024-4.977-0.041-9.161-3.388-10.467-7.951l-0.019-0.077z" />
<glyph unicode="&#xe924;" d="M337.92 717.087l-21.217-75.51c-0.263-0.894-0.415-1.921-0.415-2.983 0-4.456 2.665-8.29 6.489-9.994l0.070-0.028 50.156-21.279c1.255-0.545 2.716-0.862 4.252-0.862 4.196 0 7.84 2.368 9.667 5.84l0.029 0.060 35.758 69.018c0.777 1.459 1.233 3.191 1.233 5.030 0 3.517-1.669 6.644-4.259 8.632l-0.026 0.019c-13.251 10.138-42.865 30.024-71.27 30.024-4.956-0.035-9.126-3.355-10.446-7.889l-0.019-0.077z" />
<glyph unicode="&#xe925;" d="M242.975 615.322l-78.356 3.871c-0.166 0.009-0.36 0.014-0.555 0.014-5.338 0-9.778-3.846-10.699-8.918l-0.010-0.066-9.585-53.678c-0.109-0.579-0.172-1.245-0.172-1.926 0-5.045 3.429-9.289 8.083-10.529l0.076-0.017 75.264-19.497c0.827-0.225 1.776-0.355 2.756-0.355 4.375 0 8.147 2.584 9.873 6.309l0.028 0.067c6.922 15.155 19.743 48.476 13.414 76.165-1.085 4.753-5.152 8.29-10.089 8.559l-0.028 0.001z" />
<glyph unicode="&#xe926;" d="M236.605 634.368l-78.336 3.871c-0.167 0.009-0.362 0.014-0.558 0.014-5.342 0-9.786-3.845-10.716-8.918l-0.010-0.067-9.585-53.637c-0.109-0.579-0.171-1.245-0.171-1.926 0-5.056 3.437-9.309 8.103-10.55l0.076-0.017 75.264-19.517c0.817-0.219 1.754-0.344 2.721-0.344 4.382 0 8.162 2.577 9.907 6.298l0.028 0.067c6.922 15.176 19.722 48.476 13.414 76.165-1.093 4.756-5.167 8.293-10.11 8.559l-0.028 0.001z" />
<glyph unicode="&#xe927;" d="M304.148 333.496l-74.097 25.784c-1.067 0.384-2.299 0.606-3.582 0.606-4.245 0-7.923-2.428-9.722-5.971l-0.029-0.062-24.207-48.783c-0.731-1.424-1.16-3.108-1.16-4.891 0-3.933 2.084-7.379 5.208-9.295l0.047-0.027 66.724-39.916c1.6-0.972 3.534-1.547 5.602-1.547 3.284 0 6.23 1.451 8.231 3.746l0.011 0.013c10.916 12.616 32.584 40.96 34.324 69.304 0.013 0.2 0.020 0.434 0.020 0.67 0 4.771-3.044 8.832-7.296 10.345l-0.077 0.024z" />
<glyph unicode="&#xe928;" d="M300.564 349.266l-74.097 25.784c-1.067 0.384-2.299 0.606-3.582 0.606-4.245 0-7.923-2.428-9.722-5.971l-0.029-0.062-24.31-48.783c-0.731-1.424-1.16-3.108-1.16-4.891 0-3.933 2.084-7.379 5.208-9.295l0.047-0.027 66.724-39.916c1.6-0.972 3.534-1.547 5.602-1.547 3.284 0 6.23 1.451 8.231 3.746l0.011 0.013c10.916 12.616 32.584 40.96 34.304 69.304 0.016 0.222 0.025 0.48 0.025 0.741 0 4.72-2.99 8.741-7.179 10.274l-0.076 0.024z" />
<glyph unicode="&#xe929;" d="M769.065 656.343l-75.448-21.504c-4.602-1.352-7.905-5.536-7.905-10.492 0-0.576 0.045-1.141 0.131-1.693l-0.008 0.061 8.192-53.883c0.82-5.276 5.33-9.267 10.773-9.267 0.288 0 0.574 0.011 0.856 0.033l-0.037-0.002 77.537 5.714c5.286 0.395 9.497 4.514 10.031 9.723l0.004 0.046c1.7 16.589 3.133 52.244-11.756 76.431-1.957 3.173-5.414 5.256-9.357 5.256-1.073 0-2.11-0.154-3.091-0.442l0.077 0.019z" />
<glyph unicode="&#xe92a;" d="M762.409 665.088l-75.428-21.504c-4.612-1.345-7.925-5.535-7.925-10.498 0-0.574 0.044-1.137 0.13-1.687l-0.008 0.061 8.192-53.862c0.821-5.286 5.34-9.285 10.793-9.285 0.274 0 0.545 0.010 0.814 0.030l-0.036-0.002 77.537 5.714c5.291 0.393 9.507 4.511 10.052 9.722l0.004 0.047c1.679 16.609 3.113 52.244-11.776 76.452-1.959 3.16-5.409 5.233-9.343 5.233-1.071 0-2.106-0.154-3.084-0.44l0.077 0.019z" />
<glyph unicode="&#xe92b;" d="M729.948 453.14l13.025-77.353c0.909-5.189 5.38-9.082 10.761-9.082 0.155 0 0.31 0.003 0.464 0.010l-0.022-0.001 54.436 2.15c5.693 0.228 10.249 4.791 10.465 10.466l0.001 0.020 2.888 77.701c0.005 0.126 0.008 0.274 0.008 0.423 0 5.204-3.655 9.554-8.538 10.623l-0.072 0.013c-16.384 3.523-51.569 8.868-77.271-3.256-3.751-1.782-6.297-5.539-6.297-9.891 0-0.644 0.056-1.276 0.163-1.889l-0.009 0.065z" />
<glyph unicode="&#xe92c;" d="M720.425 447.508l13.046-77.332c0.89-5.186 5.353-9.082 10.726-9.082 0.16 0 0.32 0.003 0.479 0.010l-0.023-0.001 54.436 2.15c5.697 0.227 10.259 4.788 10.485 10.465l0.001 0.021 2.888 77.701c0.004 0.116 0.007 0.253 0.007 0.39 0 5.211-3.652 9.57-8.536 10.656l-0.073 0.014c-16.384 3.523-51.589 8.868-77.271-3.256-3.762-1.783-6.317-5.55-6.317-9.913 0-0.644 0.056-1.274 0.162-1.887l-0.009 0.065z" />
<glyph unicode="&#xe92d;" d="M835.584 493.056l4.915-29.184c2.538-14.624 15.132-25.603 30.291-25.603 0.425 0 0.847 0.009 1.268 0.026l-0.060-0.002 18.719 0.737c16.025 0.661 28.844 13.501 29.469 29.474l0.002 0.058 1.106 30.024c0.020 0.494 0.032 1.074 0.032 1.657 0 23.31-18.545 42.289-41.685 42.988l-0.064 0.002h-1.208c-0.112 0.001-0.244 0.002-0.377 0.002-23.753 0-43.008-19.255-43.008-43.008 0-2.533 0.219-5.014 0.639-7.427l-0.037 0.257z" />
<glyph unicode="&#xe92e;" d="M827.392 503.296l4.915-29.184c2.538-14.624 15.132-25.603 30.291-25.603 0.425 0 0.847 0.009 1.268 0.026l-0.060-0.002 18.719 0.737c16.025 0.661 28.844 13.501 29.469 29.474l0.002 0.058 1.106 30.024c0.020 0.494 0.032 1.074 0.032 1.657 0 23.31-18.545 42.289-41.685 42.988l-0.064 0.002h-1.208c-0.112 0.001-0.244 0.002-0.377 0.002-23.753 0-43.008-19.255-43.008-43.008 0-2.533 0.219-5.014 0.639-7.427l-0.037 0.257z" />
<glyph unicode="&#xe92f;" d="M592.343 291.738l9.994-77.21c0.584-5.263 4.701-9.407 9.899-10.030l0.054-0.005 49.521-3.379c0.141-0.008 0.305-0.012 0.471-0.012 5.114 0 9.261 4.137 9.277 9.247v0.002l4.485 75.858c0.015 0.221 0.023 0.479 0.023 0.74 0 4.988-3.112 9.249-7.5 10.948l-0.080 0.027c-14.725 5.1-46.653 13.926-70.267 4.628-3.568-1.584-6.012-5.097-6.012-9.18 0-0.577 0.049-1.142 0.142-1.693l-0.008 0.059z" />
<glyph unicode="&#xe930;" d="M582.615 305.521l9.994-77.21c0.59-5.265 4.702-9.411 9.898-10.050l0.055-0.006 49.521-3.379c0.135-0.007 0.292-0.011 0.451-0.011 5.121 0 9.278 4.132 9.318 9.244v0.004l4.465 75.94c0.015 0.225 0.024 0.488 0.024 0.753 0 4.984-3.102 9.244-7.481 10.954l-0.080 0.028c-14.725 5.1-46.653 13.906-70.287 4.608-3.574-1.582-6.022-5.097-6.022-9.184 0-0.597 0.052-1.182 0.153-1.751l-0.009 0.060z" />
<glyph unicode="&#xe931;" d="M841.462 518.84c0-12.826 13.268-23.224 29.635-23.224s29.635 10.398 29.635 23.224v0c0 12.826-13.268 23.224-29.635 23.224s-29.635-10.398-29.635-23.224v0z" />
<glyph unicode="&#xe932;" d="M453.284 246.579l-29.348 2.888c-0.898 0.093-1.941 0.146-2.996 0.146-14.52 0-26.687-10.073-29.894-23.613l-0.042-0.209-4.198-18.268c-0.493-2.060-0.775-4.426-0.775-6.857 0-13.682 8.944-25.274 21.304-29.25l0.217-0.060 28.672-8.95c3.841-1.245 8.26-1.964 12.847-1.964 19.303 0 35.635 12.716 41.077 30.228l0.082 0.305c0.123 0.389 0.225 0.778 0.348 1.167 1.016 3.484 1.601 7.486 1.601 11.625 0 22.304-16.979 40.643-38.717 42.797l-0.178 0.014z" />
<glyph unicode="&#xe933;" d="M446.874 257.946l-29.45 2.908c-0.89 0.092-1.923 0.144-2.969 0.144-14.563 0-26.759-10.134-29.922-23.734l-0.041-0.207-4.096-18.268c-0.492-2.059-0.774-4.422-0.774-6.851 0-13.689 8.953-25.286 21.323-29.256l0.217-0.060 28.672-8.95c3.824-1.234 8.224-1.946 12.791-1.946 19.296 0 35.624 12.708 41.072 30.211l0.082 0.305c0.123 0.389 0.225 0.778 0.348 1.167 1.035 3.514 1.63 7.552 1.63 11.728 0 22.3-16.972 40.636-38.704 42.795l-0.179 0.014z" />
<glyph unicode="&#xe934;" d="M443.561 189.911c12.389-3.32 25.867 6.805 30.103 22.614s-2.374 31.316-14.763 34.636v0c-12.389 3.32-25.867-6.805-30.103-22.614s2.374-31.316 14.763-34.636v0z" />
<glyph unicode="&#xe935;" d="M561.336 713.257l-29.491-2.621c-15.328-1.425-27.318-13.924-27.933-29.35l-0.002-0.059-0.717-18.739c-0.013-0.339-0.021-0.738-0.021-1.138 0-15.747 11.848-28.727 27.116-30.511l0.144-0.014 29.86-3.461c1.494-0.184 3.223-0.289 4.976-0.289 22.137 0 40.368 16.725 42.745 38.229l0.017 0.193 0.123 1.208c0.103 1.117 0.162 2.415 0.162 3.727 0 23.753-19.255 43.008-43.008 43.008-1.398 0-2.781-0.067-4.145-0.197l0.174 0.013z" />
<glyph unicode="&#xe936;" d="M552.96 723.231l-29.471-2.621c-15.337-1.415-27.337-13.918-27.953-29.35l-0.002-0.059-0.717-18.719c-0.014-0.348-0.022-0.757-0.022-1.167 0-15.718 11.805-28.679 27.033-30.501l0.146-0.014 29.839-3.441c1.5-0.186 3.237-0.291 4.998-0.291 22.131 0 40.358 16.716 42.743 38.211l0.017 0.194 0.123 1.208c0.103 1.114 0.161 2.41 0.161 3.719 0 23.753-19.255 43.008-43.008 43.008-1.369 0-2.723-0.064-4.060-0.189l0.171 0.013z" />
<glyph unicode="&#xe937;" d="M562.633 648.866c12.787-1 24.188 11.417 25.463 27.734s-8.057 30.355-20.844 31.354v0c-12.787 1-24.188-11.417-25.463-27.734s8.057-30.355 20.844-31.354v0z" />
<glyph unicode="&#xe938;" d="M260.608 420.434l20.808-21.074c5.571-5.632 13.3-9.12 21.844-9.12 7.026 0 13.501 2.359 18.677 6.328l-0.073-0.054 14.909 11.366c7.372 5.67 12.076 14.493 12.076 24.415 0 6.203-1.838 11.976-5 16.805l0.072-0.117-16.384 25.231c-7.78 11.905-21.044 19.662-36.12 19.662-8.818 0-17.016-2.654-23.839-7.206l0.157 0.099-1.004-0.676c-11.284-7.864-18.575-20.777-18.575-35.394 0-11.804 4.755-22.497 12.455-30.268l-0.003 0.003z" />
<glyph unicode="&#xe939;" d="M256.512 434.913l20.808-21.074c5.57-5.625 13.295-9.109 21.833-9.109 7.031 0 13.511 2.362 18.688 6.336l-0.073-0.054 14.909 11.366c7.367 5.67 12.067 14.49 12.067 24.408 0 6.197-1.835 11.966-4.991 16.792l0.072-0.117-16.384 25.231c-7.78 11.905-21.044 19.662-36.12 19.662-8.818 0-17.016-2.654-23.839-7.206l0.157 0.099-1.004-0.676c-11.284-7.864-18.575-20.777-18.575-35.394 0-11.804 4.755-22.497 12.455-30.268l-0.003 0.003z" />
<glyph unicode="&#xe93a;" d="M259.203 455.688c0 0 0.001-0.001 0.001-0.002 7.368-10.499 24.201-11.389 37.598-1.987s18.285 25.534 10.917 36.033c0 0.001-0.001 0.001-0.001 0.002v0c0 0-0.001 0.001-0.001 0.002-7.368 10.499-24.201 11.389-37.598 1.987s-18.285-25.534-10.917-36.033c0-0.001 0.001-0.001 0.001-0.002v0z" />
<glyph unicode="&#xe93b;" d="M211.7 554.658c0.001 0 0.001 0 0.002-0.001 10.567-2.733 23.317 11.226 28.477 31.178s0.776 38.341-9.791 41.074c-0.001 0-0.002 0-0.002 0.001v0c-0.001 0-0.001 0-0.002 0.001-10.567 2.733-23.317-11.226-28.477-31.178s-0.776-38.341 9.791-41.074c0.001 0 0.002 0 0.002-0.001v0z" />
<glyph unicode="&#xe93c;" d="M639.98 797.409l-0.635-78.438c0-0.024 0-0.053 0-0.082 0-5.501 4.070-10.052 9.363-10.806l0.058-0.007 53.985-7.352c0.449-0.065 0.967-0.103 1.493-0.103 5.205 0 9.557 3.65 10.638 8.53l0.013 0.072 16.384 76.001c0.144 0.664 0.226 1.426 0.226 2.208 0 4.526-2.759 8.407-6.687 10.053l-0.072 0.027c-15.442 6.308-49.254 17.736-76.657 10.24-4.629-1.281-7.992-5.403-8.11-10.329v-0.013z" />
<glyph unicode="&#xe93d;" d="M630.886 813.978l-0.655-78.438c0-0.024 0-0.053 0-0.082 0-5.513 4.079-10.073 9.383-10.827l0.058-0.007 53.985-7.352c0.449-0.065 0.967-0.103 1.493-0.103 5.205 0 9.557 3.65 10.638 8.53l0.013 0.072 16.384 76.001c0.154 0.688 0.243 1.479 0.243 2.29 0 4.536-2.766 8.425-6.704 10.074l-0.072 0.027c-15.442 6.308-49.254 17.736-76.657 10.24-4.663-1.277-8.044-5.447-8.11-10.417v-0.007z" />
<glyph unicode="&#xe93e;" d="M671.831 780.396c20.144-4.352 38.342 0.77 40.646 11.438s-12.157 22.845-32.3 27.197v0c-20.144 4.352-38.342-0.77-40.646-11.438s12.157-22.845 32.3-27.197v0z" />
<glyph unicode="&#xe93f;" d="M270.582 198.902l-0.655-78.438c0-0.029 0-0.063 0-0.097 0-5.505 4.082-10.056 9.385-10.791l0.057-0.006 53.985-7.373c0.447-0.065 0.964-0.102 1.49-0.102 5.201 0 9.549 3.651 10.621 8.53l0.013 0.072 16.384 76.001c0.156 0.692 0.245 1.486 0.245 2.301 0 4.544-2.777 8.44-6.727 10.083l-0.072 0.027c-15.442 6.287-49.152 17.715-76.657 10.24-4.648-1.3-8.011-5.472-8.069-10.438v-0.007z" />
<glyph unicode="&#xe940;" d="M261.468 215.45l-0.635-78.438c0-0.030 0-0.065 0-0.1 0-5.497 4.072-10.044 9.364-10.789l0.058-0.007 53.985-7.373c0.438-0.062 0.943-0.097 1.457-0.097 5.218 0 9.583 3.655 10.674 8.544l0.014 0.073 16.384 75.981c0.157 0.694 0.247 1.491 0.247 2.309 0 4.537-2.768 8.428-6.708 10.075l-0.072 0.027c-15.442 6.308-49.254 17.715-76.657 10.24-4.661-1.291-8.039-5.464-8.11-10.437v-0.008z" />
<glyph unicode="&#xe941;" d="M302.381 181.887c20.144-4.352 38.342 0.77 40.646 11.438s-12.157 22.845-32.3 27.197v0c-20.144 4.352-38.342-0.77-40.646-11.438s12.157-22.845 32.3-27.197v0z" />
<glyph unicode="&#xe942;" d="M555.049 91.423c0-28.277 22.923-51.2 51.2-51.2s51.2 22.923 51.2 51.2v0c0 28.277-22.923 51.2-51.2 51.2s-51.2-22.923-51.2-51.2v0z" />
<glyph unicode="&#xe943;" d="M548.639 103.281c0-28.277 22.923-51.2 51.2-51.2s51.2 22.923 51.2 51.2v0c0 28.277-22.923 51.2-51.2 51.2s-51.2-22.923-51.2-51.2v0z" />
<glyph unicode="&#xe944;" d="M582.492 88.515c-9.318 11.776-4.096 31.396 11.633 43.868s42.578 4.096 45.343 1.249 4.096-31.396-11.633-43.848-35.963-13.025-45.343-1.27z" />
<glyph unicode="&#xe945;" d="M730.071 266.629c0-28.277 22.923-51.2 51.2-51.2s51.2 22.923 51.2 51.2v0c0 28.277-22.923 51.2-51.2 51.2s-51.2-22.923-51.2-51.2v0z" />
<glyph unicode="&#xe946;" d="M722.616 282.296c0-28.277 22.923-51.2 51.2-51.2s51.2 22.923 51.2 51.2v0c0 28.277-22.923 51.2-51.2 51.2s-51.2-22.923-51.2-51.2v0z" />
<glyph unicode="&#xe947;" d="M754.196 267.53c-9.298 11.776-4.096 31.396 11.633 43.868s42.598 4.096 45.343 1.249 4.096-31.396-11.612-43.848-36.045-13.025-45.363-1.27z" />
<glyph unicode="&#xe948;" d="M512 919.040c-260.096 0-471.040-210.944-471.040-471.040s210.944-471.040 471.040-471.040 471.040 210.944 471.040 471.040-210.944 471.040-471.040 471.040zM512 306.688c-78.044 0-141.312 63.268-141.312 141.312s63.268 141.312 141.312 141.312c78.044 0 141.312-63.268 141.312-141.312v0c0-78.044-63.268-141.312-141.312-141.312v0z" />
<glyph unicode="&#xe949;" d="M962.99 487.67c-21.504 45.445-25.641 77.517-26.317 84.357-0.039 0.39-0.061 0.843-0.061 1.3s0.022 0.911 0.066 1.357l-0.004-0.057c9.667 120.832-53.924 76.861-66.847 137.83-7.397 34.879-30.194 63.278-60.775 78.187l-0.665 0.293c-2.615 1.268-4.744 3.186-6.23 5.549l-0.036 0.062c-19.558 31.519-45.056 39.629-56.914 41.718-4.164 0.757-7.673 3.106-9.94 6.38l-0.033 0.051c-23.142 33.505-86.753 33.649-104.448 32.993-0.166-0.007-0.361-0.010-0.556-0.010-3.054 0-5.895 0.913-8.265 2.482l0.056-0.035c-92.037 60.027-63.959-17.039-150.344 13.578-58.388 20.705-92.692 0.41-109.076-15.421-8.341-7.921-19.614-12.825-32.032-12.923h-0.019c-23.695-0.43-35.574-11.039-41.472-20.582-5.712-9.172-14.086-16.218-24.035-20.138l-0.336-0.117c-22.077-8.479-29.184-20.869-29.184-20.869-34.058-62.587-24.33-19.128-74.383-60.15-22.939-18.486-39.068-44.61-44.531-74.462l-0.116-0.761c-2.585-14.122-8.841-26.479-17.737-36.423l0.063 0.071c-37.908-42.762-34.591-83.395-28.672-104.735 0.943-3.389 1.484-7.281 1.484-11.299 0-7.569-1.922-14.69-5.306-20.899l0.114 0.229c-35.717-67.4 14.049-69.96 3.707-132.014-11.141-66.744 20.029-58.86 28.836-76.472s-15.053-61.174 25.498-79.483c35.246-15.913 59.535-51.2 65.311-60.232 0.805-1.248 1.451-2.694 1.86-4.236l0.024-0.106c19.19-72.52 67.584-21.975 102.687-77.722 27.709-44.012 86.016-48.538 110.141-48.415 0.013 0 0.029 0 0.045 0 6.983 0 13.398-2.432 18.444-6.495l-0.057 0.044c35.369-28.119 77.824-16.896 100.925-7.168 5.467 2.439 11.848 3.86 18.56 3.86 5.077 0 9.963-0.813 14.538-2.315l-0.329 0.094c53.555-17.9 110.592 11.203 136.274 27.259 8.089 5.024 17.568 8.706 27.709 10.459l0.471 0.067c39.506 7.086 75.981 47.514 93.819 70.41 7.149 8.979 16.351 16.025 26.915 20.477l0.447 0.167c49.603 20.849 61.911 85.115 64.451 105.37 2.785 22.241 64.655 60.477 52.142 120.955s28.467 76.493 4.137 127.939zM589.169 325.652c-6.267-1.393-36.372-24.125-80.527-34.918-47.104-11.51-98.406 57.836-114.36 62.996-23.409 7.578-60.662 48.353-32.87 106.066 4.566 9.377 7.758 20.276 8.974 31.766l0.037 0.429c1.782 16.855 7.926 41.329 27.914 52.060 31.99 17.142 64.205 62.444 110.592 62.341 44.605-0.123 92.692-51.302 128.737-65.352 33.751-13.189 15.974-74.752 20.152-87.613s55.931-100.086-68.649-127.775z" />
<glyph unicode="&#xe94a;" d="M380.928 682.824c50.267 26.754 109.92 42.464 173.242 42.464 23.3 0 46.103-2.127 68.225-6.198l-2.302 0.352c37.089-6.595 56.771 42.537 25.088 62.935-49.446 32.337-110.003 51.574-175.052 51.574-173.8 0-315.527-137.326-322.591-309.392l-0.021-0.64c-1.516-37.663 49.992-49.807 65.925-15.667 35.805 75.63 93.767 135.876 165.434 173.588l2.051 0.984z" />
<glyph unicode="&#xe94b;" d="M575.734 261.222c-21.885-6.582-47.033-10.37-73.067-10.37-34.668 0-67.768 6.718-98.067 18.924l1.764-0.628c-24.576 9.646-44.892-21.381-25.948-39.793 40.716-39.638 96.394-64.083 157.782-64.083 106.015 0 195.002 72.905 219.561 171.314l0.329 1.558c6.144 25.661-27.464 41.124-43.131 19.866-34.11-45.962-81.933-80.034-137.365-96.321l-1.858-0.468z" />
<glyph unicode="&#xe94c;" d="M459.305 795.046l35.992-18.274-26.704-52.593-35.992 18.276z" />
<glyph unicode="&#xe94d;" d="M456.595 803.301l35.994-18.274-26.706-52.593-35.992 18.276z" />
<glyph unicode="&#xe94e;" d="M535.708 669.821l-23.239-33.004-48.226 33.956 23.239 33.006z" />
<glyph unicode="&#xe94f;" d="M533.94 678.597l-23.241-33.006-48.226 33.958 23.241 33.006z" />
<glyph unicode="&#xe950;" d="M417.815 609.874l-39.948-5.794-8.462 58.372 39.948 5.792z" />
<glyph unicode="&#xe951;" d="M422.969 617.177l-39.948-5.792-8.464 58.372 39.948 5.792z" />
<glyph unicode="&#xe952;" d="M776.731 754.698l-23.239-33.006-48.226 33.956 23.239 33.006z" />
<glyph unicode="&#xe953;" d="M774.98 763.441l-23.241-33.006-48.226 33.956 23.241 33.008z" />
<glyph unicode="&#xe954;" d="M592.378 770.406l-38.353-12.587-18.393 56.039 38.353 12.589z" />
<glyph unicode="&#xe955;" d="M596.197 778.49l-38.355-12.589-18.391 56.041 38.353 12.589z" />
<glyph unicode="&#xe956;" d="M625.121 608.51l-37.462 15.030 21.961 54.743 37.464-15.032z" />
<glyph unicode="&#xe957;" d="M622.604 616.509l-37.464 15.032 21.961 54.739 37.464-15.028z" />
<glyph unicode="&#xe958;" d="M694.102 545.837l1.614 40.366 58.982-2.359-1.614-40.366z" />
<glyph unicode="&#xe959;" d="M698.423 551.51l1.493 40.339 58.941-2.183-1.495-40.337z" />
<glyph unicode="&#xe95a;" d="M794.399 621.472l1.616 40.366 58.982-2.359-1.616-40.366z" />
<glyph unicode="&#xe95b;" d="M798.45 626.852l1.495 40.337 58.941-2.183-1.495-40.337z" />
<glyph unicode="&#xe95c;" d="M762.587 390.646l-40.339 1.493 2.183 58.941 40.337-1.493z" />
<glyph unicode="&#xe95d;" d="M757.524 397.324l-40.339 1.493 2.183 58.941 40.337-1.495z" />
<glyph unicode="&#xe95e;" d="M850.321 434.108l-24.711 31.914 46.635 36.11 24.713-31.918z" />
<glyph unicode="&#xe95f;" d="M852.189 442.268l-24.713 31.918 46.637 36.11 24.713-31.918z" />
<glyph unicode="&#xe960;" d="M810.066 268.593l-24.713 31.916 46.637 36.11 24.713-31.916z" />
<glyph unicode="&#xe961;" d="M811.95 276.767l-24.713 31.916 46.637 36.11 24.713-31.916z" />
<glyph unicode="&#xe962;" d="M823.964 184.056l-30.769-26.13-38.181 44.958 30.769 26.13z" />
<glyph unicode="&#xe963;" d="M815.716 185.569l-30.769-26.132-38.179 44.96 30.767 26.128z" />
<glyph unicode="&#xe964;" d="M650.15 299.282l20.238 34.927 51.034-29.573-20.238-34.925z" />
<glyph unicode="&#xe965;" d="M658.42 300.599l20.238 34.927 51.034-29.573-20.238-34.925z" />
<glyph unicode="&#xe966;" d="M528.005 206.442l-35.117 20.183 29.491 51.315 35.117-20.183z" />
<glyph unicode="&#xe967;" d="M530.029 212.113l-34.927 20.238 29.573 51.036 34.925-20.24z" />
<glyph unicode="&#xe968;" d="M660.296 115.134l-35.119 20.183 29.491 51.315 35.119-20.183z" />
<glyph unicode="&#xe969;" d="M663.077 120.551l-34.927 20.238 29.573 51.034 34.925-20.238z" />
<glyph unicode="&#xe96a;" d="M550.562 79.139l-30.192-26.794-39.152 44.114 30.192 26.794z" />
<glyph unicode="&#xe96b;" d="M542.294 80.482l-30.19-26.794-39.154 44.114 30.192 26.794z" />
<glyph unicode="&#xe96c;" d="M397.599 90.45l-22.036 33.823 49.422 32.195 22.032-33.825z" />
<glyph unicode="&#xe96d;" d="M400.146 98.437l-22.030 33.823 49.42 32.195 22.032-33.823z" />
<glyph unicode="&#xe96e;" d="M348.766 281.426l20.238 34.927 51.034-29.573-20.238-34.925z" />
<glyph unicode="&#xe96f;" d="M357.028 282.769l20.238 34.927 51.034-29.571-20.238-34.927z" />
<glyph unicode="&#xe970;" d="M283.324 225.389l35.946 18.364 26.833-52.525-35.949-18.364z" />
<glyph unicode="&#xe971;" d="M291.015 222.022l35.946 18.362 26.833-52.525-35.946-18.362z" />
<glyph unicode="&#xe972;" d="M177.279 328.966l35.992-18.276-26.704-52.591-35.992 18.276z" />
<glyph unicode="&#xe973;" d="M179.077 320.782l35.992-18.276-26.704-52.591-35.992 18.276z" />
<glyph unicode="&#xe974;" d="M264.759 377.147l39.444 8.565 12.517-57.639-39.449-8.565z" />
<glyph unicode="&#xe975;" d="M271.325 371.937l39.444 8.567 12.517-57.641-39.449-8.565z" />
<glyph unicode="&#xe976;" d="M112.775 533.223l31.916 24.713 36.11-46.637-31.916-24.713z" />
<glyph unicode="&#xe977;" d="M120.947 531.317l31.918 24.713 36.108-46.637-31.916-24.711z" />
<glyph unicode="&#xe978;" d="M252.606 734.89l31.918 24.711 36.108-46.635-31.916-24.713z" />
<glyph unicode="&#xe979;" d="M260.794 733.016l31.918 24.713 36.11-46.637-31.918-24.713z" />
<glyph unicode="&#xe97a;" d="M270.61 567.699l1.495 40.339 58.941-2.181-1.495-40.339z" />
<glyph unicode="&#xe97b;" d="M277.273 572.778l1.493 40.337 58.941-2.181-1.493-40.339z" />
<glyph unicode="&#xe97c;" d="M239.131 439.017l1.493 40.339 58.941-2.183-1.495-40.337z" />
<glyph unicode="&#xe97d;" d="M245.791 444.074l1.493 40.339 58.941-2.183-1.493-40.337z" />
<glyph unicode="&#xe97e;" d="M382.333 776.063l-31.869 24.775 36.2 46.565 31.867-24.773z" />
<glyph unicode="&#xe97f;" d="M382.126 784.437l-31.869 24.775 36.198 46.567 31.871-24.775z" />
<glyph unicode="&#xe980;" d="M525.21 743.752l-13.455-20.296c13.539-10.482 29.389-18.79 46.574-24.036l1.042-0.274c37.335-10.854 71.475-2.171 98.693 25.108l-15.217 18.657c-21.422-21.463-47.35-28.058-77.087-19.64-15.51 4.663-29.006 11.662-40.858 20.705l0.308-0.225z" />
<glyph unicode="&#xe981;" d="M525.21 753.152l-13.455-20.296c13.542-10.472 29.39-18.779 46.571-24.035l1.045-0.275c37.335-10.854 71.475-2.171 98.693 25.108l-15.217 18.698c-21.422-21.443-47.35-28.058-77.087-19.62-15.507 4.648-29.003 11.627-40.862 20.646l0.312-0.228z" />
<glyph unicode="&#xe982;" d="M195.973 709.673l-19.415-14.684c10.036-15.226 22.282-28.066 36.449-38.438l0.415-0.29c31.642-22.528 66.724-25.702 101.437-8.97l-8.192 22.671c-27.3-13.148-53.944-10.793-79.217 7.004-12.416 9.024-22.865 19.864-31.189 32.251l-0.288 0.455z" />
<glyph unicode="&#xe983;" d="M189.297 718.643l-19.313-14.643c10.036-15.226 22.282-28.066 36.449-38.438l0.415-0.29c31.662-22.528 66.744-25.702 101.458-8.97l-8.192 22.671c-27.3-13.148-53.944-10.793-79.237 7.004-12.452 9.009-22.934 19.837-31.294 32.215l-0.287 0.45z" />
<glyph unicode="&#xe984;" d="M177.644 341.402l19.784-14.234c11.023 13.232 19.879 28.737 25.739 45.641l0.312 1.033c12.288 36.864 4.813 71.352-21.443 99.574l-19.231-14.52c20.623-22.2 26.276-48.353 16.753-77.824-5.224-15.229-12.671-28.402-22.092-39.894l0.178 0.224z" />
<glyph unicode="&#xe985;" d="M168.612 344.33l19.804-14.193c11.034 13.23 19.897 28.735 25.76 45.642l0.311 1.032c12.288 36.864 4.792 71.352-21.443 99.574l-19.251-14.52c20.644-22.2 26.276-48.353 16.753-77.824-5.215-15.247-12.67-28.435-22.11-39.932l0.176 0.221z" />
<glyph unicode="&#xe986;" d="M489.206 155.034l-19.784-14.234c-11.031 13.238-19.894 28.749-25.759 45.661l-0.312 1.034c-12.288 36.864-4.792 71.352 21.443 99.553l19.251-14.52c-20.644-22.18-26.276-48.333-16.753-77.824 5.213-15.231 12.661-28.405 22.090-39.891l-0.177 0.222z" />
<glyph unicode="&#xe987;" d="M483.471 157.962l-19.784-14.213c-11.019 13.24-19.874 28.751-25.738 45.659l-0.312 1.035c-12.288 36.864-4.813 71.352 21.443 99.553l19.231-14.52c-20.623-22.18-26.276-48.333-16.753-77.824 5.221-15.236 12.669-28.416 22.092-39.915l-0.178 0.224z" />
<glyph unicode="&#xe988;" d="M573.665 52.060l19.784-14.193c11.017 13.234 19.871 28.738 25.738 45.638l0.313 1.035c12.288 36.864 4.813 71.352-21.443 99.574l-19.231-14.52c20.623-22.18 26.276-48.353 16.753-77.824-5.208-15.246-12.657-28.435-22.091-39.933l0.177 0.222z" />
<glyph unicode="&#xe989;" d="M579.379 54.989l19.784-14.193c11.036 13.255 19.899 28.787 25.76 45.721l0.311 1.035c12.288 36.864 4.792 71.352-21.443 99.574l-19.251-14.52c20.644-22.2 26.276-48.353 16.773-77.824-5.212-15.277-12.668-28.492-22.112-40.017l0.178 0.224z" />
<glyph unicode="&#xe98a;" d="M822.927 235.192l8.847-22.712c18.135 5.757 33.869 14.257 47.614 25.158l-0.305-0.234c30.372 24.228 42.906 57.221 36.372 95.171l-24.044-1.679c5.202-29.839-4.321-54.845-28.344-74.322-11.409-9.1-24.752-16.384-39.244-21.127l-0.897-0.254z" />
<glyph unicode="&#xe98b;" d="M817.418 239.555l8.847-22.671c18.128 5.753 33.856 14.254 47.592 25.157l-0.304-0.233c30.372 24.289 43.008 57.201 36.311 95.15l-24.064-1.679c5.222-29.839-4.321-54.845-28.324-74.322-11.39-9.089-24.702-16.376-39.159-21.145l-0.9-0.257z" />
<glyph unicode="&#xe98c;" d="M756.183 493.711l8.847-22.671c18.138 5.734 33.876 14.237 47.609 25.154l-0.3-0.23c30.372 24.289 43.008 57.201 36.291 95.15l-24.044-1.679c5.202-29.86-4.321-54.845-28.344-74.322-11.388-9.093-24.701-16.381-39.161-21.145l-0.898-0.256z" />
<glyph unicode="&#xe98d;" d="M750.674 498.094l8.847-22.692c18.165 5.747 33.928 14.249 47.697 25.159l-0.307-0.234c30.372 24.31 43.008 57.201 36.311 95.171l-24.064-1.679c5.222-29.86-4.321-54.866-28.324-74.322-11.418-9.099-24.766-16.388-39.261-21.146l-0.9-0.256z" />
<glyph unicode="&#xe98e;" d="M679.117 582.431l-24.289 1.843c0.129 18.922 3.794 36.951 10.364 53.51l-0.35-1c14.336 36.147 42.168 57.754 80.404 62.505l5.427-23.491c-30.065-3.727-51.2-20.152-62.792-48.804-5.337-13.187-8.535-28.47-8.764-44.471l-0.001-0.093z" />
<glyph unicode="&#xe98f;" d="M677.151 589.885l-24.269 1.823c0.103 18.926 3.77 36.965 10.363 53.523l-0.348-0.992c14.336 36.147 42.148 57.754 80.404 62.505l5.407-23.491c-30.065-3.83-51.2-20.214-62.792-48.886-5.314-13.162-8.51-28.413-8.764-44.379l-0.001-0.104z" />
<glyph unicode="&#xe990;" d="M512 919.040c-260.096 0-471.040-210.944-471.040-471.040s210.944-471.040 471.040-471.040 471.040 210.944 471.040 471.040-210.944 471.040-471.040 471.040zM512 306.688c-78.044 0-141.312 63.268-141.312 141.312s63.268 141.312 141.312 141.312c78.044 0 141.312-63.268 141.312-141.312v0c0-78.044-63.268-141.312-141.312-141.312v0z" />
<glyph unicode="&#xe991;" d="M962.99 487.67c-21.504 45.445-25.641 77.517-26.317 84.357-0.039 0.39-0.061 0.843-0.061 1.3s0.022 0.911 0.066 1.357l-0.004-0.057c9.667 120.832-53.924 76.861-66.847 137.83-7.397 34.879-30.194 63.278-60.775 78.187l-0.665 0.293c-2.615 1.268-4.744 3.186-6.23 5.549l-0.036 0.062c-19.558 31.519-45.056 39.629-56.914 41.718-4.164 0.757-7.673 3.106-9.94 6.38l-0.033 0.051c-23.142 33.505-86.753 33.649-104.448 32.993-0.166-0.007-0.361-0.010-0.556-0.010-3.054 0-5.895 0.913-8.265 2.482l0.056-0.035c-92.037 60.027-63.959-17.039-150.344 13.578-58.388 20.705-92.692 0.41-109.076-15.421-8.341-7.921-19.614-12.825-32.032-12.923h-0.019c-23.695-0.43-35.574-11.039-41.472-20.582-5.712-9.172-14.086-16.218-24.035-20.138l-0.336-0.117c-22.077-8.479-29.184-20.869-29.184-20.869-34.058-62.587-24.33-19.128-74.383-60.15-22.939-18.486-39.068-44.61-44.531-74.462l-0.116-0.761c-2.585-14.122-8.841-26.479-17.737-36.423l0.063 0.071c-37.908-42.762-34.591-83.395-28.672-104.735 0.943-3.389 1.484-7.281 1.484-11.299 0-7.569-1.922-14.69-5.306-20.899l0.114 0.229c-35.717-67.4 14.049-69.96 3.707-132.014-11.141-66.744 20.029-58.86 28.836-76.472s-15.053-61.174 25.498-79.483c35.246-15.913 59.535-51.2 65.311-60.232 0.805-1.248 1.451-2.694 1.86-4.236l0.024-0.106c19.19-72.52 67.584-21.975 102.687-77.722 27.709-44.012 86.016-48.538 110.141-48.415 0.013 0 0.029 0 0.045 0 6.983 0 13.398-2.432 18.444-6.495l-0.057 0.044c35.369-28.119 77.824-16.896 100.925-7.168 5.467 2.439 11.848 3.86 18.56 3.86 5.077 0 9.963-0.813 14.538-2.315l-0.329 0.094c53.555-17.9 110.592 11.203 136.274 27.259 8.089 5.024 17.568 8.706 27.709 10.459l0.471 0.067c39.506 7.086 75.981 47.514 93.819 70.41 7.149 8.979 16.351 16.025 26.915 20.477l0.447 0.167c49.603 20.849 61.911 85.115 64.451 105.37 2.785 22.241 64.655 60.477 52.142 120.955s28.467 76.493 4.137 127.939zM589.169 325.652c-6.267-1.393-36.372-24.125-80.527-34.918-47.104-11.51-98.406 57.836-114.36 62.996-23.409 7.578-60.662 48.353-32.87 106.066 4.566 9.377 7.758 20.276 8.974 31.766l0.037 0.429c1.782 16.855 7.926 41.329 27.914 52.060 31.99 17.142 64.205 62.444 110.592 62.341 44.605-0.123 92.692-51.302 128.737-65.352 33.751-13.189 15.974-74.752 20.152-87.613s55.931-100.086-68.649-127.775z" />
<glyph unicode="&#xe992;" d="M380.928 682.824c50.267 26.754 109.92 42.464 173.242 42.464 23.3 0 46.103-2.127 68.225-6.198l-2.302 0.352c37.089-6.595 56.771 42.537 25.088 62.935-49.446 32.337-110.003 51.574-175.052 51.574-173.8 0-315.527-137.326-322.591-309.392l-0.021-0.64c-1.516-37.663 49.992-49.807 65.925-15.667 35.805 75.63 93.767 135.876 165.434 173.588l2.051 0.984z" />
<glyph unicode="&#xe993;" d="M575.734 261.222c-21.885-6.582-47.033-10.37-73.067-10.37-34.668 0-67.768 6.718-98.067 18.924l1.764-0.628c-24.576 9.646-44.892-21.381-25.948-39.793 40.716-39.638 96.394-64.083 157.782-64.083 106.015 0 195.002 72.905 219.561 171.314l0.329 1.558c6.144 25.661-27.464 41.124-43.131 19.866-34.11-45.962-81.933-80.034-137.365-96.321l-1.858-0.468z" />
<glyph unicode="&#xe994;" d="M341.381 705.72l-21.197-75.448c-0.265-0.895-0.418-1.924-0.418-2.988 0-4.45 2.668-8.277 6.492-9.969l0.070-0.027 50.176-21.279c1.257-0.55 2.723-0.87 4.262-0.87 4.184 0 7.817 2.363 9.635 5.828l0.029 0.060 35.779 69.018c0.773 1.458 1.228 3.188 1.228 5.024 0 3.517-1.667 6.645-4.254 8.638l-0.026 0.019c-13.251 10.24-42.885 30.044-71.291 30.024-4.977-0.041-9.161-3.388-10.467-7.951l-0.019-0.077z" />
<glyph unicode="&#xe995;" d="M337.92 717.087l-21.217-75.51c-0.263-0.894-0.415-1.921-0.415-2.983 0-4.456 2.665-8.29 6.489-9.994l0.070-0.028 50.156-21.279c1.255-0.545 2.716-0.862 4.252-0.862 4.196 0 7.84 2.368 9.667 5.84l0.029 0.060 35.758 69.018c0.777 1.459 1.233 3.191 1.233 5.030 0 3.517-1.669 6.644-4.259 8.632l-0.026 0.019c-13.251 10.138-42.865 30.024-71.27 30.024-4.956-0.035-9.126-3.355-10.446-7.889l-0.019-0.077z" />
<glyph unicode="&#xe996;" d="M242.975 615.322l-78.356 3.871c-0.166 0.009-0.36 0.014-0.555 0.014-5.338 0-9.778-3.846-10.699-8.918l-0.010-0.066-9.585-53.678c-0.109-0.579-0.172-1.245-0.172-1.926 0-5.045 3.429-9.289 8.083-10.529l0.076-0.017 75.264-19.497c0.827-0.225 1.776-0.355 2.756-0.355 4.375 0 8.147 2.584 9.873 6.309l0.028 0.067c6.922 15.155 19.743 48.476 13.414 76.165-1.085 4.753-5.152 8.29-10.089 8.559l-0.028 0.001z" />
<glyph unicode="&#xe997;" d="M236.605 634.368l-78.336 3.871c-0.167 0.009-0.362 0.014-0.558 0.014-5.342 0-9.786-3.845-10.716-8.918l-0.010-0.067-9.585-53.637c-0.109-0.579-0.171-1.245-0.171-1.926 0-5.056 3.437-9.309 8.103-10.55l0.076-0.017 75.264-19.517c0.817-0.219 1.754-0.344 2.721-0.344 4.382 0 8.162 2.577 9.907 6.298l0.028 0.067c6.922 15.176 19.722 48.476 13.414 76.165-1.093 4.756-5.167 8.293-10.11 8.559l-0.028 0.001z" />
<glyph unicode="&#xe998;" d="M304.148 333.496l-74.097 25.784c-1.067 0.384-2.299 0.606-3.582 0.606-4.245 0-7.923-2.428-9.722-5.971l-0.029-0.062-24.207-48.783c-0.731-1.424-1.16-3.108-1.16-4.891 0-3.933 2.084-7.379 5.208-9.295l0.047-0.027 66.724-39.916c1.6-0.972 3.534-1.547 5.602-1.547 3.284 0 6.23 1.451 8.231 3.746l0.011 0.013c10.916 12.616 32.584 40.96 34.324 69.304 0.013 0.2 0.020 0.434 0.020 0.67 0 4.771-3.044 8.832-7.296 10.345l-0.077 0.024z" />
<glyph unicode="&#xe999;" d="M300.564 349.266l-74.097 25.784c-1.067 0.384-2.299 0.606-3.582 0.606-4.245 0-7.923-2.428-9.722-5.971l-0.029-0.062-24.31-48.783c-0.731-1.424-1.16-3.108-1.16-4.891 0-3.933 2.084-7.379 5.208-9.295l0.047-0.027 66.724-39.916c1.6-0.972 3.534-1.547 5.602-1.547 3.284 0 6.23 1.451 8.231 3.746l0.011 0.013c10.916 12.616 32.584 40.96 34.304 69.304 0.016 0.222 0.025 0.48 0.025 0.741 0 4.72-2.99 8.741-7.179 10.274l-0.076 0.024z" />
<glyph unicode="&#xe99a;" d="M769.065 656.343l-75.448-21.504c-4.602-1.352-7.905-5.536-7.905-10.492 0-0.576 0.045-1.141 0.131-1.693l-0.008 0.061 8.192-53.883c0.82-5.276 5.33-9.267 10.773-9.267 0.288 0 0.574 0.011 0.856 0.033l-0.037-0.002 77.537 5.714c5.286 0.395 9.497 4.514 10.031 9.723l0.004 0.046c1.7 16.589 3.133 52.244-11.756 76.431-1.957 3.173-5.414 5.256-9.357 5.256-1.073 0-2.11-0.154-3.091-0.442l0.077 0.019z" />
<glyph unicode="&#xe99b;" d="M762.409 665.088l-75.428-21.504c-4.612-1.345-7.925-5.535-7.925-10.498 0-0.574 0.044-1.137 0.13-1.687l-0.008 0.061 8.192-53.862c0.821-5.286 5.34-9.285 10.793-9.285 0.274 0 0.545 0.010 0.814 0.030l-0.036-0.002 77.537 5.714c5.291 0.393 9.507 4.511 10.052 9.722l0.004 0.047c1.679 16.609 3.113 52.244-11.776 76.452-1.959 3.16-5.409 5.233-9.343 5.233-1.071 0-2.106-0.154-3.084-0.44l0.077 0.019z" />
<glyph unicode="&#xe99c;" d="M729.948 453.14l13.025-77.353c0.909-5.189 5.38-9.082 10.761-9.082 0.155 0 0.31 0.003 0.464 0.010l-0.022-0.001 54.436 2.15c5.693 0.228 10.249 4.791 10.465 10.466l0.001 0.020 2.888 77.701c0.005 0.126 0.008 0.274 0.008 0.423 0 5.204-3.655 9.554-8.538 10.623l-0.072 0.013c-16.384 3.523-51.569 8.868-77.271-3.256-3.751-1.782-6.297-5.539-6.297-9.891 0-0.644 0.056-1.276 0.163-1.889l-0.009 0.065z" />
<glyph unicode="&#xe99d;" d="M720.425 447.508l13.046-77.332c0.89-5.186 5.353-9.082 10.726-9.082 0.16 0 0.32 0.003 0.479 0.010l-0.023-0.001 54.436 2.15c5.697 0.227 10.259 4.788 10.485 10.465l0.001 0.021 2.888 77.701c0.004 0.116 0.007 0.253 0.007 0.39 0 5.211-3.652 9.57-8.536 10.656l-0.073 0.014c-16.384 3.523-51.589 8.868-77.271-3.256-3.762-1.783-6.317-5.55-6.317-9.913 0-0.644 0.056-1.274 0.162-1.887l-0.009 0.065z" />
<glyph unicode="&#xe99e;" d="M835.584 493.056l4.915-29.184c2.538-14.624 15.132-25.603 30.291-25.603 0.425 0 0.847 0.009 1.268 0.026l-0.060-0.002 18.719 0.737c16.025 0.661 28.844 13.501 29.469 29.474l0.002 0.058 1.106 30.024c0.020 0.494 0.032 1.074 0.032 1.657 0 23.31-18.545 42.289-41.685 42.988l-0.064 0.002h-1.208c-0.112 0.001-0.244 0.002-0.377 0.002-23.753 0-43.008-19.255-43.008-43.008 0-2.533 0.219-5.014 0.639-7.427l-0.037 0.257z" />
<glyph unicode="&#xe99f;" d="M827.392 503.296l4.915-29.184c2.538-14.624 15.132-25.603 30.291-25.603 0.425 0 0.847 0.009 1.268 0.026l-0.060-0.002 18.719 0.737c16.025 0.661 28.844 13.501 29.469 29.474l0.002 0.058 1.106 30.024c0.020 0.494 0.032 1.074 0.032 1.657 0 23.31-18.545 42.289-41.685 42.988l-0.064 0.002h-1.208c-0.112 0.001-0.244 0.002-0.377 0.002-23.753 0-43.008-19.255-43.008-43.008 0-2.533 0.219-5.014 0.639-7.427l-0.037 0.257z" />
<glyph unicode="&#xe9a0;" d="M592.343 291.738l9.994-77.21c0.584-5.263 4.701-9.407 9.899-10.030l0.054-0.005 49.521-3.379c0.141-0.008 0.305-0.012 0.471-0.012 5.114 0 9.261 4.137 9.277 9.247v0.002l4.485 75.858c0.015 0.221 0.023 0.479 0.023 0.74 0 4.988-3.112 9.249-7.5 10.948l-0.080 0.027c-14.725 5.1-46.653 13.926-70.267 4.628-3.568-1.584-6.012-5.097-6.012-9.18 0-0.577 0.049-1.142 0.142-1.693l-0.008 0.059z" />
<glyph unicode="&#xe9a1;" d="M582.615 305.521l9.994-77.21c0.59-5.265 4.702-9.411 9.898-10.050l0.055-0.006 49.521-3.379c0.135-0.007 0.292-0.011 0.451-0.011 5.121 0 9.278 4.132 9.318 9.244v0.004l4.465 75.94c0.015 0.225 0.024 0.488 0.024 0.753 0 4.984-3.102 9.244-7.481 10.954l-0.080 0.028c-14.725 5.1-46.653 13.906-70.287 4.608-3.574-1.582-6.022-5.097-6.022-9.184 0-0.597 0.052-1.182 0.153-1.751l-0.009 0.060z" />
<glyph unicode="&#xe9a2;" d="M841.462 518.84c0-12.826 13.268-23.224 29.635-23.224s29.635 10.398 29.635 23.224v0c0 12.826-13.268 23.224-29.635 23.224s-29.635-10.398-29.635-23.224v0z" />
<glyph unicode="&#xe9a3;" d="M453.284 246.579l-29.348 2.888c-0.898 0.093-1.941 0.146-2.996 0.146-14.52 0-26.687-10.073-29.894-23.613l-0.042-0.209-4.198-18.268c-0.493-2.060-0.775-4.426-0.775-6.857 0-13.682 8.944-25.274 21.304-29.25l0.217-0.060 28.672-8.95c3.841-1.245 8.26-1.964 12.847-1.964 19.303 0 35.635 12.716 41.077 30.228l0.082 0.305c0.123 0.389 0.225 0.778 0.348 1.167 1.016 3.484 1.601 7.486 1.601 11.625 0 22.304-16.979 40.643-38.717 42.797l-0.178 0.014z" />
<glyph unicode="&#xe9a4;" d="M446.874 257.946l-29.45 2.908c-0.89 0.092-1.923 0.144-2.969 0.144-14.563 0-26.759-10.134-29.922-23.734l-0.041-0.207-4.096-18.268c-0.492-2.059-0.774-4.422-0.774-6.851 0-13.689 8.953-25.286 21.323-29.256l0.217-0.060 28.672-8.95c3.824-1.234 8.224-1.946 12.791-1.946 19.296 0 35.624 12.708 41.072 30.211l0.082 0.305c0.123 0.389 0.225 0.778 0.348 1.167 1.035 3.514 1.63 7.552 1.63 11.728 0 22.3-16.972 40.636-38.704 42.795l-0.179 0.014z" />
<glyph unicode="&#xe9a5;" d="M443.561 189.911c12.389-3.32 25.867 6.805 30.103 22.614s-2.374 31.316-14.763 34.636v0c-12.389 3.32-25.867-6.805-30.103-22.614s2.374-31.316 14.763-34.636v0z" />
<glyph unicode="&#xe9a6;" d="M561.336 713.257l-29.491-2.621c-15.328-1.425-27.318-13.924-27.933-29.35l-0.002-0.059-0.717-18.739c-0.013-0.339-0.021-0.738-0.021-1.138 0-15.747 11.848-28.727 27.116-30.511l0.144-0.014 29.86-3.461c1.494-0.184 3.223-0.289 4.976-0.289 22.137 0 40.368 16.725 42.745 38.229l0.017 0.193 0.123 1.208c0.103 1.117 0.162 2.415 0.162 3.727 0 23.753-19.255 43.008-43.008 43.008-1.398 0-2.781-0.067-4.145-0.197l0.174 0.013z" />
<glyph unicode="&#xe9a7;" d="M552.96 723.231l-29.471-2.621c-15.337-1.415-27.337-13.918-27.953-29.35l-0.002-0.059-0.717-18.719c-0.014-0.348-0.022-0.757-0.022-1.167 0-15.718 11.805-28.679 27.033-30.501l0.146-0.014 29.839-3.441c1.5-0.186 3.237-0.291 4.998-0.291 22.131 0 40.358 16.716 42.743 38.211l0.017 0.194 0.123 1.208c0.103 1.114 0.161 2.41 0.161 3.719 0 23.753-19.255 43.008-43.008 43.008-1.369 0-2.723-0.064-4.060-0.189l0.171 0.013z" />
<glyph unicode="&#xe9a8;" d="M562.633 648.866c12.787-1 24.188 11.417 25.463 27.734s-8.057 30.355-20.844 31.354v0c-12.787 1-24.188-11.417-25.463-27.734s8.057-30.355 20.844-31.354v0z" />
<glyph unicode="&#xe9a9;" d="M260.608 420.434l20.808-21.074c5.571-5.632 13.3-9.12 21.844-9.12 7.026 0 13.501 2.359 18.677 6.328l-0.073-0.054 14.909 11.366c7.372 5.67 12.076 14.493 12.076 24.415 0 6.203-1.838 11.976-5 16.805l0.072-0.117-16.384 25.231c-7.78 11.905-21.044 19.662-36.12 19.662-8.818 0-17.016-2.654-23.839-7.206l0.157 0.099-1.004-0.676c-11.284-7.864-18.575-20.777-18.575-35.394 0-11.804 4.755-22.497 12.455-30.268l-0.003 0.003z" />
<glyph unicode="&#xe9aa;" d="M256.512 434.913l20.808-21.074c5.57-5.625 13.295-9.109 21.833-9.109 7.031 0 13.511 2.362 18.688 6.336l-0.073-0.054 14.909 11.366c7.367 5.67 12.067 14.49 12.067 24.408 0 6.197-1.835 11.966-4.991 16.792l0.072-0.117-16.384 25.231c-7.78 11.905-21.044 19.662-36.12 19.662-8.818 0-17.016-2.654-23.839-7.206l0.157 0.099-1.004-0.676c-11.284-7.864-18.575-20.777-18.575-35.394 0-11.804 4.755-22.497 12.455-30.268l-0.003 0.003z" />
<glyph unicode="&#xe9ab;" d="M259.203 455.688c0 0 0.001-0.001 0.001-0.002 7.368-10.499 24.201-11.389 37.598-1.987s18.285 25.534 10.917 36.033c0 0.001-0.001 0.001-0.001 0.002v0c0 0-0.001 0.001-0.001 0.002-7.368 10.499-24.201 11.389-37.598 1.987s-18.285-25.534-10.917-36.033c0-0.001 0.001-0.001 0.001-0.002v0z" />
<glyph unicode="&#xe9ac;" d="M211.171 553.756c0.001 0 0.002 0 0.002-0.001 10.565-2.742 23.326 11.206 28.504 31.153s0.81 38.341-9.755 41.083c-0.001 0-0.002 0-0.003 0.001v0c-0.001 0-0.002 0-0.002 0.001-10.565 2.742-23.326-11.206-28.504-31.153s-0.81-38.341 9.755-41.083c0.001 0 0.002 0 0.003-0.001v0z" />
<glyph unicode="&#xe9ad;" d="M639.98 797.409l-0.635-78.438c0-0.024 0-0.053 0-0.082 0-5.501 4.070-10.052 9.363-10.806l0.058-0.007 53.985-7.352c0.449-0.065 0.967-0.103 1.493-0.103 5.205 0 9.557 3.65 10.638 8.53l0.013 0.072 16.384 76.001c0.144 0.664 0.226 1.426 0.226 2.208 0 4.526-2.759 8.407-6.687 10.053l-0.072 0.027c-15.442 6.308-49.254 17.736-76.657 10.24-4.629-1.281-7.992-5.403-8.11-10.329v-0.013z" />
<glyph unicode="&#xe9ae;" d="M630.886 813.978l-0.655-78.438c0-0.024 0-0.053 0-0.082 0-5.513 4.079-10.073 9.383-10.827l0.058-0.007 53.985-7.352c0.449-0.065 0.967-0.103 1.493-0.103 5.205 0 9.557 3.65 10.638 8.53l0.013 0.072 16.384 76.001c0.154 0.688 0.243 1.479 0.243 2.29 0 4.536-2.766 8.425-6.704 10.074l-0.072 0.027c-15.442 6.308-49.254 17.736-76.657 10.24-4.663-1.277-8.044-5.447-8.11-10.417v-0.007z" />
<glyph unicode="&#xe9af;" d="M671.831 780.396c20.144-4.352 38.342 0.77 40.646 11.438s-12.157 22.845-32.3 27.197v0c-20.144 4.352-38.342-0.77-40.646-11.438s12.157-22.845 32.3-27.197v0z" />
<glyph unicode="&#xe9b0;" d="M270.582 198.902l-0.655-78.438c0-0.029 0-0.063 0-0.097 0-5.505 4.082-10.056 9.385-10.791l0.057-0.006 53.985-7.373c0.447-0.065 0.964-0.102 1.49-0.102 5.201 0 9.549 3.651 10.621 8.53l0.013 0.072 16.384 76.001c0.156 0.692 0.245 1.486 0.245 2.301 0 4.544-2.777 8.44-6.727 10.083l-0.072 0.027c-15.442 6.287-49.152 17.715-76.657 10.24-4.648-1.3-8.011-5.472-8.069-10.438v-0.007z" />
<glyph unicode="&#xe9b1;" d="M261.468 215.45l-0.635-78.438c0-0.030 0-0.065 0-0.1 0-5.497 4.072-10.044 9.364-10.789l0.058-0.007 53.985-7.373c0.438-0.062 0.943-0.097 1.457-0.097 5.218 0 9.583 3.655 10.674 8.544l0.014 0.073 16.384 75.981c0.157 0.694 0.247 1.491 0.247 2.309 0 4.537-2.768 8.428-6.708 10.075l-0.072 0.027c-15.442 6.308-49.254 17.715-76.657 10.24-4.661-1.291-8.039-5.464-8.11-10.437v-0.008z" />
<glyph unicode="&#xe9b2;" d="M302.381 181.887c20.144-4.352 38.342 0.77 40.646 11.438s-12.157 22.845-32.3 27.197v0c-20.144 4.352-38.342-0.77-40.646-11.438s12.157-22.845 32.3-27.197v0z" />
<glyph unicode="&#xe9b3;" d="M555.049 91.423c0-28.277 22.923-51.2 51.2-51.2s51.2 22.923 51.2 51.2v0c0 28.277-22.923 51.2-51.2 51.2s-51.2-22.923-51.2-51.2v0z" />
<glyph unicode="&#xe9b4;" d="M548.639 103.281c0-28.277 22.923-51.2 51.2-51.2s51.2 22.923 51.2 51.2v0c0 28.277-22.923 51.2-51.2 51.2s-51.2-22.923-51.2-51.2v0z" />
<glyph unicode="&#xe9b5;" d="M582.492 88.515c-9.318 11.776-4.096 31.396 11.633 43.868s42.578 4.096 45.343 1.249 4.096-31.396-11.633-43.848-35.963-13.025-45.343-1.27z" />
<glyph unicode="&#xe9b6;" d="M730.071 266.629c0-28.277 22.923-51.2 51.2-51.2s51.2 22.923 51.2 51.2v0c0 28.277-22.923 51.2-51.2 51.2s-51.2-22.923-51.2-51.2v0z" />
<glyph unicode="&#xe9b7;" d="M722.616 282.296c0-28.277 22.923-51.2 51.2-51.2s51.2 22.923 51.2 51.2v0c0 28.277-22.923 51.2-51.2 51.2s-51.2-22.923-51.2-51.2v0z" />
<glyph unicode="&#xe9b8;" d="M754.196 267.53c-9.298 11.776-4.096 31.396 11.633 43.868s42.598 4.096 45.343 1.249 4.096-31.396-11.612-43.848-36.045-13.025-45.363-1.27z" />
<glyph unicode="&#xe9b9;" d="M512 919.040c-260.096 0-471.040-210.944-471.040-471.040s210.944-471.040 471.040-471.040 471.040 210.944 471.040 471.040-210.944 471.040-471.040 471.040zM512 306.688c-78.044 0-141.312 63.268-141.312 141.312s63.268 141.312 141.312 141.312c78.044 0 141.312-63.268 141.312-141.312v0c0-78.044-63.268-141.312-141.312-141.312v0z" />
<glyph unicode="&#xe9ba;" d="M745.226 838.267c-4.172 0.752-7.689 3.102-9.961 6.38l-0.033 0.051c-23.142 33.505-86.753 33.649-104.448 32.993-0.166-0.007-0.361-0.010-0.556-0.010-3.054 0-5.895 0.913-8.265 2.482l0.056-0.035c-92.037 60.027-63.959-17.039-150.344 13.578-58.388 20.705-92.692 0.41-109.076-15.421-8.341-7.921-19.614-12.825-32.032-12.923h-0.019c-23.695-0.43-35.574-11.039-41.472-20.582-5.712-9.172-14.086-16.218-24.035-20.138l-0.336-0.117c-6.323-2.391-11.781-5.274-16.812-8.732l0.264 0.171h538.624c-10.959 11.123-25.148 19.036-41.045 22.218l-0.509 0.085zM962.99 487.67c-21.504 45.445-25.641 77.517-26.317 84.357-0.039 0.39-0.061 0.843-0.061 1.3s0.022 0.911 0.066 1.357l-0.004-0.057c9.667 120.832-53.924 76.861-66.847 137.83-7.221 34.011-29.040 61.836-58.438 77.058l-0.626 0.295v-0.655h-583.578c-24.576-40.96-20.623-8.335-66.15-45.65-22.939-18.486-39.068-44.61-44.531-74.462l-0.116-0.761c-2.585-14.122-8.841-26.479-17.737-36.423l0.063 0.071c-37.908-42.762-34.591-83.395-28.672-104.735 0.943-3.389 1.484-7.281 1.484-11.299 0-7.569-1.922-14.69-5.306-20.899l0.114 0.229c-35.717-67.4 14.049-69.96 3.707-132.014-11.141-66.744 20.029-58.86 28.836-76.472s-15.053-61.174 25.498-79.483c35.246-15.913 59.535-51.2 65.311-60.232 0.805-1.248 1.451-2.694 1.86-4.236l0.024-0.106c19.19-72.52 67.584-21.975 102.687-77.722 27.709-44.012 86.016-48.538 110.141-48.415 0.013 0 0.029 0 0.045 0 6.983 0 13.398-2.432 18.444-6.495l-0.057 0.044c35.369-28.119 77.824-16.896 100.925-7.168 5.467 2.439 11.848 3.86 18.56 3.86 5.077 0 9.963-0.813 14.538-2.315l-0.329 0.094c53.555-17.9 110.592 11.203 136.274 27.259 8.089 5.024 17.568 8.706 27.709 10.459l0.471 0.067c39.506 7.086 75.981 47.514 93.819 70.41 7.149 8.979 16.351 16.025 26.915 20.477l0.447 0.167c49.603 20.849 61.911 85.115 64.451 105.37 2.785 22.241 64.655 60.477 52.142 120.955s28.57 76.493 4.239 127.939zM589.169 325.652c-6.267-1.393-36.372-24.125-80.527-34.918-47.104-11.51-98.406 57.836-114.36 62.996-23.409 7.578-60.662 48.353-32.87 106.066 4.566 9.377 7.758 20.276 8.974 31.766l0.037 0.429c1.782 16.855 7.926 41.329 27.914 52.060 31.99 17.142 64.205 62.444 110.592 62.341 44.605-0.123 92.692-51.302 128.737-65.352 33.751-13.189 15.974-74.752 20.152-87.613s55.931-100.086-68.649-127.775z" />
<glyph unicode="&#xe9bb;" d="M380.928 682.824c50.267 26.754 109.92 42.464 173.242 42.464 23.3 0 46.103-2.127 68.225-6.198l-2.302 0.352c37.089-6.595 56.771 42.537 25.088 62.935-49.446 32.337-110.003 51.574-175.052 51.574-173.8 0-315.527-137.326-322.591-309.392l-0.021-0.64c-1.516-37.663 49.992-49.807 65.925-15.667 35.805 75.63 93.767 135.876 165.434 173.588l2.051 0.984z" />
<glyph unicode="&#xe9bc;" d="M810.762 789.893l-2.355 1.311c-2.679 1.496-4.819 3.676-6.226 6.306l-0.041 0.084c-2.048 3.727-4.096 7.168-6.267 10.24-4.523 6.994-12.224 11.596-21.009 11.755h-516.489c-9.324-0.145-17.46-5.098-22.053-12.483l-0.065-0.112c-0.573-0.901-0.84-1.413-0.84-1.413-3.072-6.451-5.796-11.899-8.192-16.527h583.68z" />
<glyph unicode="&#xe9bd;" d="M575.734 261.222c-21.885-6.582-47.033-10.37-73.067-10.37-34.668 0-67.768 6.718-98.067 18.924l1.764-0.628c-24.576 9.646-44.892-21.381-25.948-39.793 40.716-39.638 96.394-64.083 157.782-64.083 106.015 0 195.002 72.905 219.561 171.314l0.329 1.558c6.144 25.661-27.464 41.124-43.131 19.866-34.11-45.962-81.933-80.034-137.365-96.321l-1.858-0.468z" />
<glyph unicode="&#xe9be;" d="M857.416 656.302c-37.888 0-86.569 5.427-139.776 11.346-96.809 10.793-206.52 23.020-283.095 6.554-146.125-31.375-314.286-11.387-321.372-10.527-6.768 0.687-12.005 6.356-12.005 13.248 0 7.352 5.96 13.312 13.312 13.312 0.681 0 1.349-0.051 2.002-0.15l-0.073 0.009c1.7-0.205 170.906-20.296 312.545 10.138 80.814 17.367 192.799 4.895 291.615-6.144 78.234-8.704 152.125-16.937 182.743-5.939 1.338 0.494 2.883 0.781 4.495 0.781 7.365 0 13.335-5.97 13.335-13.335 0-5.752-3.643-10.654-8.747-12.525l-0.093-0.030c-13.599-4.813-32.338-6.738-54.886-6.738zM397.312 541.594c-0.002 0-0.005 0-0.007 0-1.736 0-3.395 0.331-4.917 0.933l0.091-0.032c-164.7 64.041-316.559 3.686-318.075 3.072-1.716-0.864-3.74-1.37-5.882-1.37-7.352 0-13.312 5.96-13.312 13.312 0 5.852 3.776 10.822 9.024 12.606l0.094 0.028c1.659 0.676 41.329 16.732 102.851 24.576 56.709 7.148 143.503 8.192 234.947-27.361 5.072-1.956 8.606-6.792 8.606-12.452 0-7.352-5.96-13.312-13.312-13.312-0.037 0-0.075 0-0.112 0h0.006zM939.5 541.594c-2.247 0.010-4.361 0.57-6.217 1.551l0.073-0.035c-92.16 48.415-300.605-0.655-302.694-1.147-0.78-0.162-1.676-0.255-2.594-0.255-7.352 0-13.312 5.96-13.312 13.312 0 6.088 4.087 11.222 9.668 12.807l0.094 0.023c8.95 2.048 220.221 51.896 321.27-1.167 4.257-2.278 7.105-6.695 7.105-11.776 0-7.33-5.924-13.276-13.245-13.312h-0.003zM58.409 401.777c-7.328 0.032-13.256 5.98-13.256 13.312 0 5.467 3.296 10.165 8.009 12.214l0.086 0.033c5.898 2.519 146.391 61.071 307.2 18.432 5.511-1.712 9.444-6.766 9.444-12.738 0-7.352-5.96-13.312-13.312-13.312-1.039 0-2.050 0.119-3.021 0.344l0.090-0.018c-151.777 40.161-288.768-16.671-290.038-17.244-1.515-0.648-3.278-1.024-5.129-1.024-0.026 0-0.051 0-0.077 0h0.004zM809.103 401.654c-88.187 0-142.316 14.541-145.654 15.462-5.839 1.494-10.086 6.709-10.086 12.915 0 7.352 5.96 13.312 13.312 13.312 1.369 0 2.691-0.207 3.934-0.591l-0.094 0.025c1.188-0.328 120.545-32.133 293.233 0.164 0.665 0.118 1.43 0.185 2.211 0.185 7.352 0 13.312-5.96 13.312-13.312 0-6.38-4.488-11.711-10.479-13.010l-0.088-0.016c-47.93-9.514-103.085-15.017-159.505-15.135h-0.096zM84.562 278.794c-7.336 0.021-13.276 5.973-13.276 13.312 0 6.572 4.763 12.032 11.025 13.116l0.079 0.011c1.925 0.328 196.239 32.461 360.448 15.032 6.725-0.733 11.912-6.381 11.912-13.24 0-7.353-5.961-13.314-13.314-13.314-0.494 0-0.982 0.027-1.462 0.079l0.059-0.005c-160.625 17.060-351.334-14.479-353.239-14.807-0.671-0.117-1.444-0.184-2.232-0.184v0zM821.248 285.86c-97.546 0-210.637 11.919-229.765 14.008-6.704 0.758-11.866 6.396-11.866 13.24 0 7.356 5.964 13.32 13.32 13.32 0.512 0 1.018-0.029 1.515-0.085l-0.061 0.006c80.568-8.827 300.298-26.010 348.631 0.123 1.832 1.010 4.016 1.605 6.339 1.605 7.356 0 13.319-5.963 13.319-13.319 0-5.033-2.792-9.415-6.912-11.68l-0.069-0.035c-24.023-12.964-76.513-17.183-134.451-17.183zM585.83 136.602c-35.068 0.254-69.18 3.619-102.287 9.832l3.553-0.554c-218.931 38.216-320.778 9.974-321.782 9.687-1.107-0.332-2.38-0.524-3.697-0.524-7.353 0-13.313 5.961-13.313 13.313 0 6.036 4.016 11.133 9.522 12.766l0.094 0.024c4.342 1.249 108.831 30.228 333.824-9.052 126.853-22.159 191.488 2.232 243.425 21.832 47.473 17.9 88.474 33.362 154.153 6.144 4.851-2.060 8.192-6.784 8.192-12.288 0-7.352-5.96-13.312-13.312-13.312-1.848 0-3.608 0.376-5.207 1.057l0.087-0.033c-55.951 23.163-88.945 10.732-134.574-6.492-39.526-14.889-85.975-32.399-158.679-32.399zM514.888 37.356c-140.493 0-242.196 14.848-243.712 15.073-6.459 0.991-11.349 6.509-11.349 13.169 0 7.353 5.961 13.315 13.315 13.315 0.694 0 1.375-0.053 2.040-0.155l-0.074 0.009c2.335-0.348 236.503-34.447 484.495 2.048 0.616 0.101 1.326 0.159 2.049 0.159 7.352 0 13.312-5.96 13.312-13.312 0-6.702-4.953-12.248-11.398-13.175l-0.071-0.008c-87.654-12.882-173.67-17.121-248.607-17.121z" />
<glyph unicode="&#xe9bf;" d="M512 919.040c-260.096 0-471.040-210.944-471.040-471.040s210.944-471.040 471.040-471.040 471.040 210.944 471.040 471.040-210.944 471.040-471.040 471.040zM512 306.688c-78.044 0-141.312 63.268-141.312 141.312s63.268 141.312 141.312 141.312c78.044 0 141.312-63.268 141.312-141.312v0c0-78.044-63.268-141.312-141.312-141.312v0z" />
<glyph unicode="&#xe9c0;" d="M962.99 487.67c-21.504 45.445-25.641 77.517-26.317 84.357-0.039 0.39-0.061 0.843-0.061 1.3s0.022 0.911 0.066 1.357l-0.004-0.057c9.667 120.832-53.924 76.861-66.847 137.83-7.397 34.879-30.194 63.278-60.775 78.187l-0.665 0.293c-2.615 1.268-4.744 3.186-6.23 5.549l-0.036 0.062c-19.558 31.519-45.056 39.629-56.914 41.718-4.164 0.757-7.673 3.106-9.94 6.38l-0.033 0.051c-23.142 33.505-86.753 33.649-104.448 32.993-0.166-0.007-0.361-0.010-0.556-0.010-3.054 0-5.895 0.913-8.265 2.482l0.056-0.035c-92.037 60.027-63.959-17.039-150.344 13.578-58.388 20.705-92.692 0.41-109.076-15.421-8.341-7.921-19.614-12.825-32.032-12.923h-0.019c-23.695-0.43-35.574-11.039-41.472-20.582-5.712-9.172-14.086-16.218-24.035-20.138l-0.336-0.117c-22.077-8.479-29.184-20.869-29.184-20.869-34.058-62.587-24.33-19.128-74.383-60.15-22.939-18.486-39.068-44.61-44.531-74.462l-0.116-0.761c-2.585-14.122-8.841-26.479-17.737-36.423l0.063 0.071c-37.908-42.762-34.591-83.395-28.672-104.735 0.943-3.389 1.484-7.281 1.484-11.299 0-7.569-1.922-14.69-5.306-20.899l0.114 0.229c-35.717-67.4 14.049-69.96 3.707-132.014-11.141-66.744 20.029-58.86 28.836-76.472s-15.053-61.174 25.498-79.483c35.246-15.913 59.535-51.2 65.311-60.232 0.805-1.248 1.451-2.694 1.86-4.236l0.024-0.106c19.19-72.52 67.584-21.975 102.687-77.722 27.709-44.012 86.016-48.538 110.141-48.415 0.013 0 0.029 0 0.045 0 6.983 0 13.398-2.432 18.444-6.495l-0.057 0.044c35.369-28.119 77.824-16.896 100.925-7.168 5.467 2.439 11.848 3.86 18.56 3.86 5.077 0 9.963-0.813 14.538-2.315l-0.329 0.094c53.555-17.9 110.592 11.203 136.274 27.259 8.089 5.024 17.568 8.706 27.709 10.459l0.471 0.067c39.506 7.086 75.981 47.514 93.819 70.41 7.149 8.979 16.351 16.025 26.915 20.477l0.447 0.167c49.603 20.849 61.911 85.115 64.451 105.37 2.785 22.241 64.655 60.477 52.142 120.955s28.467 76.493 4.137 127.939zM589.169 325.652c-6.267-1.393-36.372-24.125-80.527-34.918-47.104-11.51-98.406 57.836-114.36 62.996-23.409 7.578-60.662 48.353-32.87 106.066 4.566 9.377 7.758 20.276 8.974 31.766l0.037 0.429c1.782 16.855 7.926 41.329 27.914 52.060 31.99 17.142 64.205 62.444 110.592 62.341 44.605-0.123 92.692-51.302 128.737-65.352 33.751-13.189 15.974-74.752 20.152-87.613s55.931-100.086-68.649-127.775z" />
<glyph unicode="&#xe9c1;" d="M380.928 682.824c50.267 26.754 109.92 42.464 173.242 42.464 23.3 0 46.103-2.127 68.225-6.198l-2.302 0.352c37.089-6.595 56.771 42.537 25.088 62.935-49.446 32.337-110.003 51.574-175.052 51.574-173.8 0-315.527-137.326-322.591-309.392l-0.021-0.64c-1.516-37.663 49.992-49.807 65.925-15.667 35.805 75.63 93.767 135.876 165.434 173.588l2.051 0.984z" />
<glyph unicode="&#xe9c2;" d="M575.734 261.222c-21.885-6.582-47.033-10.37-73.067-10.37-34.668 0-67.768 6.718-98.067 18.924l1.764-0.628c-24.576 9.646-44.892-21.381-25.948-39.793 40.716-39.638 96.394-64.083 157.782-64.083 106.015 0 195.002 72.905 219.561 171.314l0.329 1.558c6.144 25.661-27.464 41.124-43.131 19.866-34.11-45.962-81.933-80.034-137.365-96.321l-1.858-0.468z" />
<glyph unicode="&#xe9c3;" d="M461.107 849.736h9.421q11.244 0 11.244-11.244v-47.432q0-11.244-11.244-11.244h-9.421q-11.244 0-11.244 11.244v47.432q0 11.244 11.244 11.244z" />
<glyph unicode="&#xe9c4;" d="M456.274 854.569h9.421q11.244 0 11.244-11.244v-47.432q0-11.244-11.244-11.244h-9.421q-11.244 0-11.244 11.244v47.432q0 11.244 11.244 11.244z" />
<glyph unicode="&#xe9c5;" d="M738.681 630.51l8.71-3.59q10.395-4.285 6.111-14.68l-18.075-43.853q-4.285-10.395-14.68-6.111l-8.71 3.59q-10.395 4.285-6.111 14.68l18.075 43.853q4.285 10.395 14.68 6.111z" />
<glyph unicode="&#xe9c6;" d="M736.060 636.829l8.71-3.59q10.395-4.285 6.111-14.68l-18.075-43.853q-4.285-10.395-14.68-6.111l-8.71 3.59q-10.395 4.285-6.111 14.68l18.075 43.853q4.285 10.395 14.68 6.111z" />
<glyph unicode="&#xe9c7;" d="M744.113 300.827l-1.604-9.283q-1.914-11.079-12.993-9.166l-46.74 8.073q-11.079 1.914-9.166 12.993l1.604 9.283q1.914 11.079 12.993 9.166l46.74-8.073q11.079-1.914 9.166-12.993z" />
<glyph unicode="&#xe9c8;" d="M740.332 307.693l-1.604-9.283q-1.914-11.079-12.993-9.166l-46.74 8.073q-11.079 1.914-9.166 12.993l1.604 9.283q1.914 11.079 12.993 9.166l46.74-8.073q11.079-1.914 9.166-12.993z" />
<glyph unicode="&#xe9c9;" d="M466.383 238.035l-1.604-9.283q-1.914-11.079-12.993-9.166l-46.74 8.073q-11.079 1.914-9.166 12.993l1.604 9.283q1.914 11.079 12.993 9.166l46.74-8.073q11.079-1.914 9.166-12.993z" />
<glyph unicode="&#xe9ca;" d="M462.6 244.899l-1.604-9.283q-1.914-11.079-12.993-9.166l-46.74 8.073q-11.079 1.914-9.166 12.993l1.604 9.283q1.914 11.079 12.993 9.166l46.74-8.073q11.079-1.914 9.166-12.993z" />
<glyph unicode="&#xe9cb;" d="M167.067 465.81l-6.455-6.862q-7.704-8.189-15.893-0.486l-34.548 32.499q-8.189 7.704-0.486 15.893l6.455 6.862q7.704 8.189 15.893 0.486l34.548-32.499q8.189-7.704 0.486-15.893z" />
<glyph unicode="&#xe9cc;" d="M167.715 473.601l-6.455-6.862q-7.704-8.189-15.893-0.486l-34.548 32.499q-8.189 7.704-0.486 15.893l6.455 6.862q7.704 8.189 15.893 0.486l34.548-32.499q8.189-7.704 0.486-15.893z" />
<glyph unicode="&#xe9cd;" d="M546.284 788.972v9.421q0 11.244 11.244 11.244h47.432q11.244 0 11.244-11.244v-9.421q0-11.244-11.244-11.244h-47.432q-11.244 0-11.244 11.244z" />
<glyph unicode="&#xe9ce;" d="M541.471 794.173v9.421q0 11.244 11.244 11.244h47.432q11.244 0 11.244-11.244v-9.421q0-11.244-11.244-11.244h-47.432q-11.244 0-11.244 11.244z" />
<glyph unicode="&#xe9cf;" d="M643.318 736.727h9.421q11.244 0 11.244-11.244v-47.432q0-11.244-11.244-11.244h-9.421q-11.244 0-11.244 11.244v47.432q0 11.244 11.244 11.244z" />
<glyph unicode="&#xe9d0;" d="M639.324 739.942h9.421q11.244 0 11.244-11.244v-47.432q0-11.244-11.244-11.244h-9.421q-11.244 0-11.244 11.244v47.432q0 11.244 11.244 11.244z" />
<glyph unicode="&#xe9d1;" d="M263.291 541.839h9.421q11.244 0 11.244-11.244v-47.432q0-11.244-11.244-11.244h-9.421q-11.244 0-11.244 11.244v47.432q0 11.244 11.244 11.244z" />
<glyph unicode="&#xe9d2;" d="M259.297 545.075h9.421q11.244 0 11.244-11.244v-47.432q0-11.244-11.244-11.244h-9.421q-11.244 0-11.244 11.244v47.432q0 11.244 11.244 11.244z" />
<glyph unicode="&#xe9d3;" d="M839.982 556.799l8.153-4.72q9.73-5.634 4.097-15.364l-23.766-41.048q-5.634-9.73-15.364-4.097l-8.153 4.72q-9.73 5.634-4.097 15.364l23.766 41.048q5.634 9.73 15.364 4.097z" />
<glyph unicode="&#xe9d4;" d="M836.632 564.004l8.153-4.72q9.73-5.634 4.097-15.364l-23.766-41.048q-5.634-9.73-15.364-4.097l-8.153 4.72q-9.73 5.634-4.097 15.364l23.766 41.048q5.634 9.73 15.364 4.097z" />
<glyph unicode="&#xe9d5;" d="M913.783 423.070l-1.604-9.283q-1.914-11.079-12.993-9.166l-46.74 8.073q-11.079 1.914-9.166 12.993l1.604 9.283q1.914 11.079 12.993 9.166l46.74-8.073q11.079-1.914 9.166-12.993z" />
<glyph unicode="&#xe9d6;" d="M910.47 429.050l-1.604-9.283q-1.914-11.079-12.993-9.166l-46.74 8.073q-11.079 1.914-9.166 12.993l1.604 9.283q1.914 11.079 12.993 9.166l46.74-8.073q11.079-1.914 9.166-12.993z" />
<glyph unicode="&#xe9d7;" d="M733.458 184.994l-1.604-9.283q-1.914-11.079-12.993-9.166l-46.74 8.073q-11.079 1.914-9.166 12.993l1.604 9.283q1.914 11.079 12.993 9.166l46.74-8.073q11.079-1.914 9.166-12.993z" />
<glyph unicode="&#xe9d8;" d="M730.166 190.972l-1.604-9.283q-1.914-11.079-12.993-9.166l-46.74 8.073q-11.079 1.914-9.166 12.993l1.604 9.283q1.914 11.079 12.993 9.166l46.74-8.073q11.079-1.914 9.166-12.993z" />
<glyph unicode="&#xe9d9;" d="M429.304 111.243l-8.462 4.142q-10.099 4.943-5.156 15.042l20.852 42.602q4.943 10.099 15.042 5.156l8.462-4.142q10.099-4.943 5.156-15.042l-20.852-42.602q-4.943-10.099-15.042-5.156z" />
<glyph unicode="&#xe9da;" d="M435.985 112.774l-8.462 4.142q-10.099 4.943-5.156 15.042l20.852 42.602q4.943 10.099 15.042 5.156l8.462-4.142q10.099-4.943 5.156-15.042l-20.852-42.602q-4.943-10.099-15.042-5.156z" />
<glyph unicode="&#xe9db;" d="M200.986 652.072l9.235 1.86q11.022 2.22 13.243-8.802l9.367-46.498q2.22-11.022-8.802-13.243l-9.235-1.86q-11.022-2.22-13.243 8.802l-9.367 46.498q-2.22 11.022 8.802 13.243z" />
<glyph unicode="&#xe9dc;" d="M194.257 653.217l9.235 1.86q11.022 2.22 13.243-8.802l9.367-46.498q2.22-11.022-8.802-13.243l-9.235-1.86q-11.022-2.22-13.243 8.802l-9.367 46.498q-2.22 11.022 8.802 13.243z" />
<glyph unicode="&#xe9dd;" d="M381.728 788.020l9.235 1.86q11.022 2.22 13.243-8.802l9.367-46.498q2.22-11.022-8.802-13.243l-9.235-1.86q-11.022-2.22-13.243 8.802l-9.367 46.498q-2.22 11.022 8.802 13.243z" />
<glyph unicode="&#xe9de;" d="M375.019 789.169l9.235 1.86q11.022 2.22 13.243-8.802l9.367-46.498q2.22-11.022-8.802-13.243l-9.235-1.86q-11.022-2.22-13.243 8.802l-9.367 46.498q-2.22 11.022 8.802 13.243z" />
<glyph unicode="&#xe9df;" d="M793.989 710.492v-9.421q0-11.244-11.244-11.244h-47.432q-11.244 0-11.244 11.244v9.421q0 11.244 11.244 11.244h47.432q11.244 0 11.244-11.244z" />
<glyph unicode="&#xe9e0;" d="M789.811 716.39v-9.421q0-11.244-11.244-11.244h-47.432q-11.244 0-11.244 11.244v9.421q0 11.244 11.244 11.244h47.432q11.244 0 11.244-11.244z" />
<glyph unicode="&#xe9e1;" d="M753.18 444.274l-6.455-6.862q-7.704-8.189-15.893-0.486l-34.548 32.499q-8.189 7.704-0.486 15.893l6.455 6.862q7.704 8.189 15.893 0.486l34.548-32.499q8.189-7.704 0.486-15.893z" />
<glyph unicode="&#xe9e2;" d="M754.171 451.442l-6.455-6.862q-7.704-8.189-15.893-0.486l-34.548 32.499q-8.189 7.704-0.486 15.893l6.455 6.862q7.704 8.189 15.893 0.486l34.548-32.499q8.189-7.704 0.486-15.893z" />
<glyph unicode="&#xe9e3;" d="M260.085 287.915l4.054-8.504q4.839-10.149-5.31-14.988l-42.815-20.412q-10.149-4.839-14.988 5.31l-4.054 8.504q-4.839 10.149 5.31 14.988l42.815 20.412q10.149 4.839 14.988-5.31z" />
<glyph unicode="&#xe9e4;" d="M253.77 291.439l4.054-8.504q4.839-10.149-5.31-14.988l-42.815-20.412q-10.149-4.839-14.988 5.31l-4.054 8.504q-4.839 10.149 5.31 14.988l42.815 20.412q10.149 4.839 14.988-5.31z" />
<glyph unicode="&#xe9e5;" d="M829.493 222.31l-6.455-6.862q-7.704-8.189-15.893-0.486l-34.548 32.499q-8.189 7.704-0.486 15.893l6.455 6.862q7.704 8.189 15.893 0.486l34.548-32.499q8.189-7.704 0.486-15.893z" />
<glyph unicode="&#xe9e6;" d="M830.49 229.483l-6.455-6.862q-7.704-8.189-15.893-0.486l-34.548 32.499q-8.189 7.704-0.486 15.893l6.455 6.862q7.704 8.189 15.893 0.486l34.548-32.499q8.189-7.704 0.486-15.893z" />
<glyph unicode="&#xe9e7;" d="M464.22 657.633v-9.421q0-11.244-11.244-11.244h-47.432q-11.244 0-11.244 11.244v9.421q0 11.244 11.244 11.244h47.432q11.244 0 11.244-11.244z" />
<glyph unicode="&#xe9e8;" d="M459.817 663.347v-9.421q0-11.244-11.244-11.244h-47.432q-11.244 0-11.244 11.244v9.421q0 11.244 11.244 11.244h47.432q11.244 0 11.244-11.244z" />
<glyph unicode="&#xe9e9;" d="M879.094 597.942l-6.642-6.681q-7.927-7.974-15.901-0.047l-33.639 33.44q-7.974 7.927-0.047 15.901l6.642 6.681q7.927 7.974 15.901 0.047l33.639-33.44q7.974-7.927 0.047-15.901z" />
<glyph unicode="&#xe9ea;" d="M880.005 605.126l-6.642-6.681q-7.927-7.974-15.901-0.047l-33.639 33.44q-7.974 7.927-0.047 15.901l6.642 6.681q7.927 7.974 15.901 0.047l33.639-33.44q7.974-7.927 0.047-15.901z" />
<glyph unicode="&#xe9eb;" d="M655.731 60.117l-6.642-6.681q-7.927-7.974-15.901-0.047l-33.639 33.44q-7.974 7.927-0.047 15.901l6.642 6.681q7.927 7.974 15.901 0.047l33.639-33.44q7.974-7.927 0.047-15.901z" />
<glyph unicode="&#xe9ec;" d="M656.652 67.285l-6.642-6.681q-7.927-7.974-15.901-0.047l-33.639 33.44q-7.974 7.927-0.047 15.901l6.642 6.681q7.927 7.974 15.901 0.047l33.639-33.44q7.974-7.927 0.047-15.901z" />
<glyph unicode="&#xe9ed;" d="M344.534 284.073l-6.642-6.681q-7.927-7.974-15.901-0.047l-33.639 33.44q-7.974 7.927-0.047 15.901l6.642 6.681q7.927 7.974 15.901 0.047l33.639-33.44q7.974-7.927 0.047-15.901z" />
<glyph unicode="&#xe9ee;" d="M345.451 291.223l-6.642-6.681q-7.927-7.974-15.901-0.047l-33.639 33.44q-7.974 7.927-0.047 15.901l6.642 6.681q7.927 7.974 15.901 0.047l33.639-33.44q7.974-7.927 0.047-15.901z" />
<glyph unicode="&#xe9ef;" d="M560.833 726.411l3.598-8.707q4.294-10.391-6.098-14.685l-43.837-18.113q-10.391-4.294-14.685 6.098l-3.598 8.707q-4.294 10.391 6.098 14.685l43.837 18.113q10.391 4.294 14.685-6.098z" />
<glyph unicode="&#xe9f0;" d="M559.266 733.039l3.598-8.707q4.294-10.391-6.098-14.685l-43.837-18.113q-10.391-4.294-14.685 6.098l-3.598 8.707q-4.294 10.391 6.098 14.685l43.837 18.113q10.391 4.294 14.685-6.098z" />
<glyph unicode="&#xe9f1;" d="M350.793 578.671l-8.504-4.054q-10.149-4.839-14.988 5.31l-20.412 42.815q-4.839 10.149 5.31 14.988l8.504 4.054q10.149 4.839 14.988-5.31l20.412-42.815q4.839-10.149-5.31-14.988z" />
<glyph unicode="&#xe9f2;" d="M344.262 581.883l-8.504-4.054q-10.149-4.839-14.988 5.31l-20.412 42.815q-4.839 10.149 5.31 14.988l8.504 4.054q10.149 4.839 14.988-5.31l20.412-42.815q4.839-10.149-5.31-14.988z" />
<glyph unicode="&#xe9f3;" d="M352.407 67.429l-9.283 1.604q-11.079 1.914-9.166 12.993l8.073 46.74q1.914 11.079 12.993 9.166l9.283-1.604q11.079-1.914 9.166-12.993l-8.073-46.74q-1.914-11.079-12.993-9.166z" />
<glyph unicode="&#xe9f4;" d="M348.933 73.837l-9.283 1.604q-11.079 1.914-9.166 12.993l8.073 46.74q1.914 11.079 12.993 9.166l9.283-1.604q11.079-1.914 9.166-12.993l-8.073-46.74q-1.914-11.079-12.993-9.166z" />
<glyph unicode="&#xe9f5;" d="M524.368 122.187l-5.224 7.839q-6.235 9.356 3.121 15.591l39.47 26.303q9.356 6.235 15.591-3.121l5.224-7.839q6.235-9.356-3.121-15.591l-39.47-26.303q-9.356-6.235-15.591 3.121z" />
<glyph unicode="&#xe9f6;" d="M520.963 127.274l-5.224 7.839q-6.235 9.356 3.121 15.591l39.47 26.303q9.356 6.235 15.591-3.121l5.224-7.839q6.235-9.356-3.121-15.591l-39.47-26.303q-9.356-6.235-15.591 3.121z" />
<glyph unicode="&#xe9f7;" d="M161.634 380.994l-1.279 9.334q-1.526 11.139 9.614 12.665l46.993 6.437q11.139 1.526 12.665-9.614l1.279-9.334q1.526-11.139-9.614-12.665l-46.993-6.437q-11.139-1.526-12.665 9.614z" />
<glyph unicode="&#xe9f8;" d="M160.822 387.081l-1.279 9.334q-1.526 11.139 9.614 12.665l46.993 6.437q11.139 1.526 12.665-9.614l1.279-9.334q1.526-11.139-9.614-12.665l-46.993-6.437q-11.139-1.526-12.665 9.614z" />
<glyph unicode="&#xe9f9;" d="M637.356 597.039l-6.455-6.862q-7.704-8.189-15.893-0.486l-34.548 32.499q-8.189 7.704-0.486 15.893l6.455 6.862q7.704 8.189 15.893 0.486l34.548-32.499q8.189-7.704 0.486-15.893z" />
<glyph unicode="&#xe9fa;" d="M642.766 601.178l-6.455-6.862q-7.704-8.189-15.893-0.486l-34.548 32.499q-8.189 7.704-0.486 15.893l6.455 6.862q7.704 8.189 15.893 0.486l34.548-32.499q8.189-7.704 0.486-15.893z" />
<glyph unicode="&#xe9fb;" d="M290.314 705.043l-6.455-6.862q-7.704-8.189-15.893-0.486l-34.548 32.499q-8.189 7.704-0.486 15.893l6.455 6.862q7.704 8.189 15.893 0.486l34.548-32.499q8.189-7.704 0.486-15.893z" />
<glyph unicode="&#xe9fc;" d="M295.715 709.203l-6.455-6.862q-7.704-8.189-15.893-0.486l-34.548 32.499q-8.189 7.704-0.486 15.893l6.455 6.862q7.704 8.189 15.893 0.486l34.548-32.499q8.189-7.704 0.486-15.893z" />
<glyph unicode="&#xe9fd;" d="M768.183 339.542l-7.884 5.157q-9.409 6.155-3.254 15.564l25.965 39.694q6.155 9.409 15.564 3.254l7.884-5.157q9.409-6.155 3.254-15.564l-25.965-39.694q-6.155-9.409-15.564-3.254z" />
<glyph unicode="&#xe9fe;" d="M766.343 347.561l-7.884 5.157q-9.409 6.155-3.254 15.564l25.965 39.694q6.155 9.409 15.564 3.254l7.884-5.157q9.409-6.155 3.254-15.564l-25.965-39.694q-6.155-9.409-15.564-3.254z" />
<glyph unicode="&#xe9ff;" d="M334.591 175.784l-8.707-3.598q-10.391-4.294-14.685 6.098l-18.113 43.837q-4.294 10.391 6.098 14.685l8.707 3.598q10.391 4.294 14.685-6.098l18.113-43.837q4.294-10.391-6.098-14.685z" />
<glyph unicode="&#xea00;" d="M326.935 178.795l-8.707-3.598q-10.391-4.294-14.685 6.098l-18.113 43.837q-4.294 10.391 6.098 14.685l8.707 3.598q10.391 4.294 14.685-6.098l18.113-43.837q4.294-10.391-6.098-14.685z" />
<glyph unicode="&#xea01;" d="M618.118 205.362l-9.41-0.44q-11.231-0.526-11.757 10.706l-2.218 47.38q-0.526 11.231 10.706 11.757l9.41 0.44q11.231 0.526 11.757-10.706l2.218-47.38q0.526-11.231-10.706-11.757z" />
<glyph unicode="&#xea02;" d="M611.913 210.756l-9.41-0.44q-11.231-0.526-11.757 10.706l-2.218 47.38q-0.526 11.231 10.706 11.757l9.41 0.44q11.231 0.526 11.757-10.706l2.218-47.38q0.526-11.231-10.706-11.757z" />
<glyph unicode="&#xea03;" glyph-name="eyedropper" d="M986.51 922.51c-49.988 49.986-131.032 49.986-181.020 0l-172.118-172.118-121.372 121.372-135.764-135.764 106.426-106.426-472.118-472.118c-8.048-8.048-11.468-18.958-10.3-29.456h-0.244v-160c0-17.674 14.328-32 32-32h160c0 0 2.664 0 4 0 9.212 0 18.426 3.516 25.456 10.544l472.118 472.118 106.426-106.426 135.764 135.764-121.372 121.372 172.118 172.118c49.986 49.988 49.986 131.032 0 181.020zM173.090 0h-109.090v109.090l469.574 469.572 109.088-109.088-469.572-469.574z" />
<glyph unicode="&#xea04;" glyph-name="headphones" d="M288 384h-64v-448h64c17.6 0 32 14.4 32 32v384c0 17.6-14.4 32-32 32zM736 384c-17.602 0-32-14.4-32-32v-384c0-17.6 14.398-32 32-32h64v448h-64zM1024 448c0 282.77-229.23 512-512 512s-512-229.23-512-512c0-61.412 10.83-120.29 30.656-174.848-19.478-33.206-30.656-71.87-30.656-113.152 0-112.846 83.448-206.188 192-221.716v443.418c-31.914-4.566-61.664-15.842-87.754-32.378-5.392 26.718-8.246 54.364-8.246 82.676 0 229.75 186.25 416 416 416s416-186.25 416-416c0-28.314-2.83-55.968-8.22-82.696-26.1 16.546-55.854 27.848-87.78 32.418v-443.44c108.548 15.532 192 108.874 192 221.714 0 41.274-11.178 79.934-30.648 113.138 19.828 54.566 30.648 113.452 30.648 174.866z" />
</font>
</defs>
</svg>
