<svg xmlns="http://www.w3.org/2000/svg" width="27.303" height="22.387" viewBox="0 0 27.303 22.387">
  <path id="add_to_folder" data-name="add to folder" d="M138.2,187.91H125.944l-4-3.829a.279.279,0,0,0-.188-.075h-8.675a1.091,1.091,0,0,0-1.092,1.092v20.2a1.091,1.091,0,0,0,1.093,1.092H138.2a1.091,1.091,0,0,0,1.092-1.092V189a1.091,1.091,0,0,0-1.093-1.092Zm-8.465,9.508a.249.249,0,0,1-.255.239h-2.883v2.9a.243.243,0,0,1-.24.243h-1.433a.243.243,0,0,1-.239-.243v-2.9H121.8a.25.25,0,0,1-.256-.239v-1.432a.251.251,0,0,1,.256-.24h2.883v-2.9a.243.243,0,0,1,.24-.243h1.433a.243.243,0,0,1,.239.243v2.9h2.884a.25.25,0,0,1,.256.239v1.433Z" transform="translate(-111.986 -184.007)" fill="#5b88a8"/>
</svg>
