<?xml version="1.0" standalone="no"?><!DOCTYPE svg PUBLIC "-//W3C//DTD SVG 1.1//EN" "http://www.w3.org/Graphics/SVG/1.1/DTD/svg11.dtd"><svg t="1706695082303" class="icon" viewBox="0 0 1024 1024" version="1.1" xmlns="http://www.w3.org/2000/svg" p-id="9735" id="mx_n_1706695082303" xmlns:xlink="http://www.w3.org/1999/xlink" width="200" height="200"><path d="M677.616523 458.908659c-7.05452-22.014966-18.366077-42.448747-33.448153-59.963416 69.815418-87.816605 203.4864-72.36964 286.681078-46.340896 58.017342 18.244447 96.209051-49.138377 71.031714-97.303717-20.190521-38.921487-45.489488-76.01853-76.018529-110.43972-36.245635-41.23245-77.478085-75.653641-121.872907-103.3852C734.295938-1.946074 646.965852 6.446371 586.880806 62.517639c-81.856753 76.383418-125.278537 179.16047-128.562537 283.397078-22.136596 7.05452-42.570377 18.609336-59.963416 33.448153-87.816605-69.815418-72.36964-203.4864-46.219266-286.681079 18.244447-58.138971-49.138377-96.209051-97.425348-71.031714-38.921487 20.190521-76.01853 45.489488-110.31809 75.8969-41.23245 36.367265-75.653641 77.599715-103.3852 121.994536-43.543414 69.693788-35.029338 156.902245 21.163559 217.108921 76.261789 81.856753 179.038841 125.156907 283.397078 128.562537 7.176149 22.136596 18.730966 42.570377 33.448153 59.963416-69.937047 87.816605-203.4864 72.36964-286.681079 46.219266-58.017342-18.244447-96.209051 49.138377-71.031714 97.303717 20.190521 38.921487 45.489488 76.140159 76.01853 110.43972 36.245635 41.23245 77.478085 75.653641 121.872906 103.3852 69.693788 43.543414 157.023875 35.029338 217.108921-21.163558 81.856753-76.261789 125.278537-179.16047 128.562537-283.275449 22.136596-7.176149 42.570377-18.609336 59.963416-33.448153 87.816605 69.815418 72.36964 203.4864 46.219266 286.681079-18.244447 58.017342 49.138377 96.209051 97.425347 71.031714 38.921487-20.312151 76.01853-45.489488 110.31809-76.01853 41.23245-36.367265 75.653641-77.478085 103.3852-121.872906 43.543414-69.815418 35.029338-157.023875-21.163558-217.108921-76.261789-81.735123-179.038841-125.156907-283.397078-128.440907zM511.592054 611.675496c-54.976601 0-99.614681-44.638081-99.614681-99.614681 0-55.09823 44.638081-99.614681 99.614681-99.614681s99.736311 44.516451 99.736311 99.614681c0 54.976601-44.75971 99.614681-99.736311 99.614681z m0 0" p-id="9736" fill="#bfbfbf"></path></svg>