<svg xmlns="http://www.w3.org/2000/svg" width="9.178" height="11.558" viewBox="0 0 9.178 11.558">
  <path id="路径_7" data-name="路径 7" d="M131.463,5.362h-1.546V2.822a2.606,2.606,0,0,1,.233-1.1,2.843,2.843,0,0,1,.644-.9,3.02,3.02,0,0,1,.969-.607A3.29,3.29,0,0,1,132.985,0a3,3,0,0,1,1.135.221,3.209,3.209,0,0,1,.969.607,3.007,3.007,0,0,1,.675.9,2.446,2.446,0,0,1,.252,1.1v2.54h-1.485v-2.2a1.6,1.6,0,0,0-.429-1.2,1.588,1.588,0,0,0-1.166-.423,1.409,1.409,0,0,0-1.067.423,1.662,1.662,0,0,0-.4,1.2Zm5.288,0a.817.817,0,0,1,.81.81v3.8a1.638,1.638,0,0,1-.117.62,1.6,1.6,0,0,1-.319.5,1.463,1.463,0,0,1-1.086.46h-6.2a1.422,1.422,0,0,1-1.356-.92,1.586,1.586,0,0,1-.1-.577V6.172a.789.789,0,0,1,.233-.571.759.759,0,0,1,.564-.239h7.57Z" transform="translate(-128.384 0)" fill="#c1c1c1"/>
</svg>
