<svg id="组_7571" data-name="组 7571" xmlns="http://www.w3.org/2000/svg" width="18.571" height="19.969" viewBox="0 0 18.571 19.969">
  <path id="路径_5671" data-name="路径 5671" d="M67.549,81.219a1.246,1.246,0,0,0,1.243,1.247h8.952a1.246,1.246,0,0,0,1.241-1.247V67.981H67.549ZM76.5,65.743a.253.253,0,0,0-.256-.257H70.273a.247.247,0,0,0-.181.073.26.26,0,0,0-.075.184v.752H76.5Zm-7.965.752v-.752A1.744,1.744,0,0,1,70.273,64h5.972a1.745,1.745,0,0,1,1.738,1.743v.752h3.838a.751.751,0,0,1,0,1.5H80.482V81.219a2.744,2.744,0,0,1-2.738,2.75H68.792a2.743,2.743,0,0,1-2.738-2.75V67.981h-1.3a.73.73,0,0,1-.527-.216A.769.769,0,0,1,64,67.229a.735.735,0,0,1,.749-.735h3.788Zm4.732,13.717A.73.73,0,0,1,72.741,80a.768.768,0,0,1-.222-.536V71.467a.749.749,0,1,1,1.5,0V79.46A.748.748,0,0,1,73.268,80.212Zm3.488,0A.73.73,0,0,1,76.229,80a.769.769,0,0,1-.222-.535V71.467a.749.749,0,1,1,1.5,0V79.46A.77.77,0,0,1,76.755,80.212Zm-6.977,0A.73.73,0,0,1,69.253,80a.769.769,0,0,1-.222-.535V71.467a.749.749,0,1,1,1.5,0V79.46A.748.748,0,0,1,69.779,80.212Z" transform="translate(-64 -64)" fill="#4b5266"/>
</svg>
