<svg id="组_21661" data-name="组 21661" xmlns="http://www.w3.org/2000/svg" width="23.998" height="20.569" viewBox="0 0 23.998 20.569">
  <path id="路径_12933" data-name="路径 12933" d="M209.278,184.809V184.8a8.709,8.709,0,0,0-2.53-6.155,8.558,8.558,0,0,0-4.2-2.345.407.407,0,0,1,.051-.022l.158-.073c.11-.054.215-.11.32-.17.07-.04.137-.081.207-.127.134-.086.266-.18.392-.28s.247-.2.363-.315q.089-.085.169-.17a5.7,5.7,0,0,0,.387-.458c.048-.065.094-.129.14-.2s.089-.135.129-.2c.03-.046.056-.094.083-.143a5.062,5.062,0,0,0,.279-.584c.038-.1.075-.194.107-.291.021-.067.043-.137.064-.207a5.011,5.011,0,0,0,.188-1.37c0-.129-.005-.258-.013-.385s-.024-.253-.043-.377c-.005-.04-.013-.083-.021-.124-.022-.124-.048-.245-.078-.363-.011-.04-.021-.081-.032-.118q-.032-.117-.073-.234c-.027-.078-.054-.153-.083-.229a5.023,5.023,0,0,0-1.031-1.618q-.085-.089-.169-.17a5.008,5.008,0,0,0-1.614-1.034c-.075-.03-.153-.059-.228-.083s-.156-.051-.234-.073l-.118-.032c-.121-.03-.242-.057-.363-.078-.04-.008-.083-.013-.124-.022-.124-.019-.25-.032-.376-.043s-.255-.013-.384-.013a5.092,5.092,0,0,0-1.367.188c-.07.019-.137.04-.207.065-.1.032-.2.067-.29.108a4.84,4.84,0,0,0-.583.28c-.048.027-.094.054-.142.083q-.1.065-.2.129c-.064.043-.132.092-.2.14a5.267,5.267,0,0,0-.457.388q-.089.085-.169.17-.165.174-.314.363c-.1.127-.191.256-.279.393-.043.067-.086.137-.126.207-.059.1-.115.213-.169.32-.024.051-.048.105-.072.159s-.051.116-.073.175c-.03.075-.059.153-.083.229s-.051.156-.072.234l-.032.118c-.013.048-.024.1-.035.148-.016.073-.032.145-.043.218-.008.04-.013.083-.021.124-.019.124-.032.25-.043.377s-.013.256-.013.385a5.079,5.079,0,0,0,.078.886c.013.083.032.164.051.245.027.121.059.24.1.358a4.954,4.954,0,0,0,.322.789l.056.108a5.039,5.039,0,0,0,.693.98l.081.089q.085.089.169.17l.089.081a4.916,4.916,0,0,0,.977.695l.107.057c.115.059.231.113.352.164a8.54,8.54,0,0,0-4.144,2.332,8.652,8.652,0,0,0-2.538,6.16.439.439,0,0,0,.03.159c.124.705,1.034,1.271,2.715,1.688a28.935,28.935,0,0,0,11.805,0c1.786-.442,2.7-1.055,2.728-1.823v-.03Z" transform="translate(-188.593 -166.7)" fill="#005795"/>
  <path id="路径_12934" data-name="路径 12934" d="M70.307,290.6a10.385,10.385,0,0,1,2.008-1.582,6.651,6.651,0,0,1-.621-.944c-.027-.048-.051-.1-.075-.143a6.623,6.623,0,0,1-.433-1.063c-.048-.159-.094-.32-.129-.482-.024-.108-.048-.218-.067-.328a6.738,6.738,0,0,1-.1-1.187c0-.172.005-.344.019-.517s.032-.339.056-.506c.008-.056.019-.11.027-.167.016-.094.038-.191.059-.293.016-.073.032-.137.048-.2s.03-.108.043-.161l.008-.03q-.1.008-.2.024c-.054.008-.11.019-.164.03s-.108.024-.161.038-.1.03-.156.046-.1.032-.153.051a2.91,2.91,0,0,0-.3.126l-.073.035c-.094.048-.188.1-.277.159a3.375,3.375,0,0,0-.441.339c-.04.035-.078.073-.116.11-.056.057-.11.116-.161.175s-.1.121-.151.186c-.016.022-.032.043-.046.065-.03.043-.062.086-.089.132l-.043.067a3.328,3.328,0,0,0,0,3.439c.013.021.027.046.043.067.03.046.059.089.089.132.016.022.032.043.046.065a3.291,3.291,0,0,0,.911.834l.051.032c.067.04.137.078.207.113A5.818,5.818,0,0,0,67.32,290.8a5.91,5.91,0,0,0-1.72,4.19.418.418,0,0,0,.024.143,1.159,1.159,0,0,0,.626.748,4.682,4.682,0,0,0,1.153.441,10.393,10.393,0,0,1,2.9-5.726ZM89.6,295.192a5.92,5.92,0,0,0-1.72-4.184,5.831,5.831,0,0,0-2.683-1.55,3.308,3.308,0,0,0,.995-.78c.005-.005.008-.011.013-.013l.081-.1.024-.03c.04-.051.078-.1.116-.159.011-.014.019-.03.03-.043.032-.051.065-.1.094-.153a3.386,3.386,0,0,0,.18-.355c.008-.021.019-.043.027-.062a3.319,3.319,0,0,0-.218-2.952l-.056-.094c-.021-.035-.046-.07-.07-.1s-.056-.081-.086-.118c-.051-.065-.1-.129-.156-.191a3.083,3.083,0,0,0-.282-.28c-.056-.051-.118-.1-.177-.148a3.286,3.286,0,0,0-1.6-.659c.038.151.073.3.1.457.011.054.019.11.027.167.024.167.046.336.056.506s.019.344.019.517a6.745,6.745,0,0,1-.255,1.84c-.024.089-.054.18-.086.277-.043.132-.091.264-.142.393a6.838,6.838,0,0,1-.379.788c-.04.073-.075.132-.11.191-.056.092-.116.183-.175.272s-.124.178-.188.264c-.021.03-.046.059-.067.089a10.469,10.469,0,0,1,5,7.523,4.545,4.545,0,0,0,1.046-.412,1.084,1.084,0,0,0,.64-.872V295.2a.01.01,0,0,0,0-.008Z" transform="translate(-65.6 -279.865)" fill="#005795"/>
</svg>
