<?xml version="1.0" standalone="no"?><!DOCTYPE svg PUBLIC "-//W3C//DTD SVG 1.1//EN" "http://www.w3.org/Graphics/SVG/1.1/DTD/svg11.dtd"><svg t="1628511579771" class="icon" viewBox="0 0 1024 1024" version="1.1" xmlns="http://www.w3.org/2000/svg" p-id="16529" xmlns:xlink="http://www.w3.org/1999/xlink" width="200" height="200"><defs><style type="text/css"></style></defs><path d="M172.361143 800h431.561143c-2.998857 57.856-40.283429 94.72-91.702857 94.72-51.858286 0-88.722286-36.864-92.16-94.72h-66.852572c3.437714 82.285714 68.150857 154.697143 159.012572 154.697143 90.422857 0 155.136-72.411429 158.573714-154.697143h180.845714c40.722286 0 64.731429-20.992 64.731429-51.858286 0-42.861714-43.300571-81.426286-80.585143-119.570285-28.288-29.568-36.004571-90.422857-39.003429-139.702858-3.419429-168.868571-46.701714-278.162286-161.133714-319.305142-14.153143-55.698286-60.434286-100.278857-123.428571-100.278858-63.451429 0-109.293714 44.580571-123.867429 100.278858-113.993143 41.142857-157.714286 150.436571-160.713143 319.286857-3.419429 49.298286-10.715429 110.153143-39.424 139.721143-36.864 38.144-80.566857 76.708571-80.566857 119.588571 0 30.848 24.429714 51.84 64.713143 51.84z m18.852571-64.731429v-5.12c7.716571-12.854857 33.005714-37.723429 55.716572-63.012571 30.427429-34.285714 44.982857-89.142857 48.859428-173.129143 3.419429-186.88 59.136-246.857143 132.845715-266.569143 10.715429-2.578286 16.292571-8.155429 16.713142-18.870857 1.718857-44.982857 27.008-76.288 66.870858-76.288 39.424 0 65.133714 31.286857 66.432 76.288 0.420571 10.715429 6.418286 16.274286 17.133714 18.852572 73.289143 19.730286 129.005714 79.725714 132.864 266.587428 3.419429 83.986286 17.993143 138.843429 48.859428 173.129143 22.272 25.289143 47.981714 50.157714 55.698286 63.012571v5.12z" p-id="16530" fill="#5B88A8"></path></svg>