<svg xmlns="http://www.w3.org/2000/svg" width="19" height="19" viewBox="0 0 19 19">
  <g id="组_21924" data-name="组 21924" transform="translate(-1191 -1265)">
    <rect id="矩形_19726" data-name="矩形 19726" width="19" height="19" transform="translate(1191 1265)" fill="none"/>
    <path id="路径_14285" data-name="路径 14285" d="M69.2,74.944h0a.323.323,0,0,1-.271-.147,1.849,1.849,0,0,0-3.1,0,.323.323,0,0,1-.271.147.339.339,0,0,1-.166-.043l-3.14-1.813a.324.324,0,0,1-.127-.427,1.849,1.849,0,0,0-1.564-2.688.324.324,0,0,1-.265-.162l-.01-.018a.323.323,0,0,1-.043-.162v-3.61a.324.324,0,0,1,.31-.323A1.849,1.849,0,0,0,62.1,62.974a.324.324,0,0,1,0-.314.329.329,0,0,1,.12-.121l3.138-1.812a.324.324,0,0,1,.437.11,1.85,1.85,0,0,0,3.15,0,.324.324,0,0,1,.437-.11l3.138,1.812a.325.325,0,0,1,.124.435A1.849,1.849,0,0,0,74.2,65.7a.324.324,0,0,1,.31.323v3.61a.323.323,0,0,1-.043.162l-.01.018a.324.324,0,0,1-.265.162,1.849,1.849,0,0,0-1.564,2.688.324.324,0,0,1-.127.427L69.365,74.9A.323.323,0,0,1,69.2,74.944Zm-1.826-1.635a2.488,2.488,0,0,1,1.91.889l2.644-1.527a2.5,2.5,0,0,1,1.936-3.313V66.315a2.5,2.5,0,0,1-1.918-3.362l-2.628-1.517a2.5,2.5,0,0,1-3.888,0L62.8,62.952a2.5,2.5,0,0,1-1.918,3.362v3.044a2.5,2.5,0,0,1,1.936,3.313L65.467,74.2A2.488,2.488,0,0,1,67.377,73.309Zm0-2.446A3.025,3.025,0,1,1,70.4,67.838,3.028,3.028,0,0,1,67.377,70.863Zm0-5.4a2.378,2.378,0,1,0,2.378,2.378A2.38,2.38,0,0,0,67.377,65.461Z" transform="translate(1133.217 1206.654)" fill="#2988e6" stroke="#2988e6" stroke-width="0.7"/>
  </g>
</svg>
