<?xml version="1.0" standalone="no"?><!DOCTYPE svg PUBLIC "-//W3C//DTD SVG 1.1//EN" "http://www.w3.org/Graphics/SVG/1.1/DTD/svg11.dtd"><svg t="1651631020680" class="icon" viewBox="0 0 1024 1024" version="1.1" xmlns="http://www.w3.org/2000/svg" p-id="2500" xmlns:xlink="http://www.w3.org/1999/xlink" width="200" height="200"><defs><style type="text/css">@font-face { font-family: feedback-iconfont; src: url("//at.alicdn.com/t/font_1031158_u69w8yhxdu.woff2?t=1630033759944") format("woff2"), url("//at.alicdn.com/t/font_1031158_u69w8yhxdu.woff?t=1630033759944") format("woff"), url("//at.alicdn.com/t/font_1031158_u69w8yhxdu.ttf?t=1630033759944") format("truetype"); }
</style></defs><path d="M512 40.96C251.904 40.96 40.96 251.904 40.96 512s210.944 471.04 471.04 471.04 471.04-210.944 471.04-471.04S772.096 40.96 512 40.96z m0 612.352a141.312 141.312 0 1 1 141.312-141.312 141.312 141.312 0 0 1-141.312 141.312z" fill="#C15100" p-id="2501"></path><path d="M962.99008 472.33024c-21.504-45.44512-25.64096-77.5168-26.3168-84.35712a13.80352 13.80352 0 0 1 0-2.60096c9.66656-120.832-53.92384-76.86144-66.84672-137.8304a112.20992 112.20992 0 0 0-61.44-78.47936 14.97088 14.97088 0 0 1-6.26688-5.61152c-19.5584-31.51872-45.056-39.6288-56.91392-41.71776A15.33952 15.33952 0 0 1 735.232 115.3024c-23.1424-33.50528-86.75328-33.64864-104.448-32.99328a14.99136 14.99136 0 0 1-8.76544-2.43712c-92.03712-60.02688-63.95904 17.03936-150.34368-13.57824-58.38848-20.70528-92.69248-0.4096-109.07648 15.42144a47.104 47.104 0 0 1-32.0512 12.92288c-23.69536 0.43008-35.57376 11.03872-41.472 20.5824a49.54112 49.54112 0 0 1-24.3712 20.25472C242.62656 143.95392 235.52 156.34432 235.52 156.34432c-34.05824 62.58688-24.33024 19.12832-74.38336 60.14976a124.25216 124.25216 0 0 0-44.6464 75.22304 74.26048 74.26048 0 0 1-17.67424 36.352c-37.90848 42.76224-34.59072 83.39456-28.672 104.73472a43.74528 43.74528 0 0 1-3.70688 31.96928C30.72 532.1728 80.4864 534.7328 70.144 596.7872c-11.14112 66.74432 20.02944 58.85952 28.83584 76.47232s-15.0528 61.17376 25.4976 79.48288c35.24608 15.91296 59.53536 51.2 65.31072 60.23168a15.17568 15.17568 0 0 1 1.88416 4.34176c19.18976 72.51968 67.584 21.97504 102.68672 77.7216 27.70944 44.01152 86.016 48.5376 110.14144 48.41472a29.42976 29.42976 0 0 1 18.432 6.4512c35.36896 28.11904 77.824 16.896 100.92544 7.168a46.55104 46.55104 0 0 1 32.768-1.6384c53.5552 17.89952 110.592-11.20256 136.27392-27.25888a79.17568 79.17568 0 0 1 28.18048-10.52672c39.50592-7.08608 75.9808-47.5136 93.81888-70.41024a67.95264 67.95264 0 0 1 27.36128-20.64384c49.60256-20.84864 61.91104-85.11488 64.45056-105.3696 2.78528-22.24128 64.65536-60.47744 52.14208-120.95488s28.4672-76.4928 4.13696-127.93856z m-373.82144 162.01728c-6.26688 1.39264-36.37248 24.12544-80.52736 34.9184-47.104 11.50976-98.4064-57.83552-114.36032-62.99648-23.40864-7.5776-60.66176-48.35328-32.8704-106.06592a98.44736 98.44736 0 0 0 9.0112-32.19456c1.78176-16.85504 7.92576-41.32864 27.91424-52.06016 31.98976-17.14176 64.2048-62.44352 110.592-62.34112 44.60544 0.12288 92.69248 51.3024 128.73728 65.35168 33.75104 13.18912 15.9744 74.752 20.15232 87.61344s55.93088 100.08576-68.64896 127.77472z" fill="#F4E8DC" p-id="2502"></path><path d="M380.928 277.17632a374.62016 374.62016 0 0 1 239.16544-36.61824c37.08928 6.59456 56.77056-42.53696 25.088-62.93504a322.8672 322.8672 0 0 0-497.664 258.4576c-1.51552 37.66272 49.99168 49.80736 65.92512 15.6672A374.784 374.784 0 0 1 380.928 277.17632z" fill="#FFFFFF" p-id="2503"></path><path d="M575.73376 698.7776a262.59456 262.59456 0 0 1-169.3696-7.92576c-24.576-9.64608-44.89216 21.38112-25.94816 39.79264a226.28352 226.28352 0 0 0 377.67168-108.78976c6.144-25.66144-27.46368-41.12384-43.13088-19.8656a262.71744 262.71744 0 0 1-139.22304 96.78848z" fill="#F9F4EF" p-id="2504"></path><path d="M449.86368 110.26432m11.24352 0l9.4208 0q11.24352 0 11.24352 11.24352l0 47.43168q0 11.24352-11.24352 11.24352l-9.4208 0q-11.24352 0-11.24352-11.24352l0-47.43168q0-11.24352 11.24352-11.24352Z" fill="#066984" p-id="2505"></path><path d="M445.0304 105.43104m11.24352 0l9.4208 0q11.24352 0 11.24352 11.24352l0 47.43168q0 11.24352-11.24352 11.24352l-9.4208 0q-11.24352 0-11.24352-11.24352l0-47.43168q0-11.24352 11.24352-11.24352Z" fill="#01B8E2" p-id="2506"></path><path d="M728.286153 325.205199m10.395152 4.284572l8.709963 3.589988q10.395152 4.284572 6.11058 14.679724l-18.074808 43.852772q-4.284572 10.395152-14.679724 6.110579l-8.709964-3.589987q-10.395152-4.284572-6.110579-14.679725l18.074808-43.852771q4.284572-10.395152 14.679724-6.11058Z" fill="#066984" p-id="2507"></path><path d="M725.665316 318.886124m10.395152 4.284572l8.709963 3.589988q10.395152 4.284572 6.110579 14.679724l-18.074808 43.852772q-4.284572 10.395152-14.679724 6.110579l-8.709963-3.589987q-10.395152-4.284572-6.11058-14.679725l18.074809-43.852771q4.284572-10.395152 14.679724-6.11058Z" fill="#01B8E2" p-id="2508"></path><path d="M746.026445 648.093453m-1.913754 11.079453l-1.60351 9.283331q-1.913754 11.079453-12.993207 9.165699l-46.739552-8.073322q-11.079453-1.913754-9.1657-12.993208l1.60351-9.28333q1.913754-11.079453 12.993207-9.1657l46.739553 8.073323q11.079453 1.913754 9.165699 12.993207Z" fill="#066984" p-id="2509"></path><path d="M742.245684 641.227607m-1.913754 11.079453l-1.60351 9.283331q-1.913754 11.079453-12.993207 9.165699l-46.739552-8.073322q-11.079453-1.913754-9.1657-12.993207l1.60351-9.283331q1.913754-11.079453 12.993207-9.1657l46.739552 8.073323q11.079453 1.913754 9.1657 12.993207Z" fill="#01B8E2" p-id="2510"></path><path d="M468.297165 710.885133m-1.913754 11.079453l-1.60351 9.283331q-1.913754 11.079453-12.993207 9.165699l-46.739552-8.073322q-11.079453-1.913754-9.1657-12.993208l1.60351-9.28333q1.913754-11.079453 12.993207-9.1657l46.739553 8.073323q11.079453 1.913754 9.165699 12.993207Z" fill="#066984" p-id="2511"></path><path d="M464.514007 704.021305m-1.913754 11.079453l-1.603509 9.283331q-1.913754 11.079453-12.993208 9.165699l-46.739552-8.073322q-11.079453-1.913754-9.165699-12.993207l1.603509-9.283331q1.913754-11.079453 12.993208-9.1657l46.739552 8.073323q11.079453 1.913754 9.165699 12.993207Z" fill="#01B8E2" p-id="2512"></path><path d="M174.770538 486.00067m-7.703869 8.189454l-6.454971 6.861837q-7.703869 8.189454-15.893323 0.485585l-34.547858-32.49938q-8.189454-7.703869-0.485585-15.893323l6.454972-6.861837q7.703869-8.189454 15.893322-0.485585l34.547859 32.499381q8.189454 7.703869 0.485584 15.893322Z" fill="#066984" p-id="2513"></path><path d="M175.419324 478.209484m-7.703869 8.189453l-6.454972 6.861837q-7.703869 8.189454-15.893322 0.485585l-34.547858-32.49938q-8.189454-7.703869-0.485585-15.893322l6.454972-6.861838q7.703869-8.189454 15.893322-0.485584l34.547858 32.49938q8.189454 7.703869 0.485585 15.893322Z" fill="#01B8E2" p-id="2514"></path><path d="M546.28352 182.272m0-11.24352l0-9.4208q0-11.24352 11.24352-11.24352l47.43168 0q11.24352 0 11.24352 11.24352l0 9.4208q0 11.24352-11.24352 11.24352l-47.43168 0q-11.24352 0-11.24352-11.24352Z" fill="#066984" p-id="2515"></path><path d="M541.47072 177.07008m0-11.24352l0-9.4208q0-11.24352 11.24352-11.24352l47.43168 0q11.24352 0 11.24352 11.24352l0 9.4208q0 11.24352-11.24352 11.24352l-47.43168 0q-11.24352 0-11.24352-11.24352Z" fill="#01B8E2" p-id="2516"></path><path d="M632.07424 223.27296m11.24352 0l9.4208 0q11.24352 0 11.24352 11.24352l0 47.43168q0 11.24352-11.24352 11.24352l-9.4208 0q-11.24352 0-11.24352-11.24352l0-47.43168q0-11.24352 11.24352-11.24352Z" fill="#066984" p-id="2517"></path><path d="M628.08064 220.0576m11.24352 0l9.4208 0q11.24352 0 11.24352 11.24352l0 47.43168q0 11.24352-11.24352 11.24352l-9.4208 0q-11.24352 0-11.24352-11.24352l0-47.43168q0-11.24352 11.24352-11.24352Z" fill="#01B8E2" p-id="2518"></path><path d="M252.04736 418.16064m11.24352 0l9.4208 0q11.24352 0 11.24352 11.24352l0 47.43168q0 11.24352-11.24352 11.24352l-9.4208 0q-11.24352 0-11.24352-11.24352l0-47.43168q0-11.24352 11.24352-11.24352Z" fill="#066984" p-id="2519"></path><path d="M248.05376 414.9248m11.24352 0l9.4208 0q11.24352 0 11.24352 11.24352l0 47.43168q0 11.24352-11.24352 11.24352l-9.4208 0q-11.24352 0-11.24352-11.24352l0-47.43168q0-11.24352 11.24352-11.24352Z" fill="#01B8E2" p-id="2520"></path><path d="M830.251764 397.567415m9.730299 5.633653l8.152891 4.720364q9.730298 5.633652 4.096646 15.36395l-23.766007 41.048035q-5.633652 9.730298-15.36395 4.096646l-8.152892-4.720364q-9.730298-5.633652-4.096646-15.36395l23.766007-41.048035q5.633652-9.730298 15.363951-4.096646Z" fill="#066984" p-id="2521"></path><path d="M826.902004 390.361962m9.730299 5.633652l8.152891 4.720365q9.730298 5.633652 4.096646 15.36395l-23.766007 41.048035q-5.633652 9.730298-15.363951 4.096646l-8.152891-4.720364q-9.730298-5.633652-4.096646-15.36395l23.766007-41.048035q5.633652-9.730298 15.363951-4.096647Z" fill="#01B8E2" p-id="2522"></path><path d="M915.696858 525.850476m-1.913754 11.079454l-1.603509 9.283331q-1.913754 11.079453-12.993208 9.165699l-46.739552-8.073322q-11.079453-1.913754-9.165699-12.993208l1.603509-9.28333q1.913754-11.079453 12.993208-9.1657l46.739552 8.073323q11.079453 1.913754 9.165699 12.993207Z" fill="#066984" p-id="2523"></path><path d="M912.383513 519.870695m-1.913754 11.079453l-1.60351 9.283331q-1.913754 11.079453-12.993207 9.1657l-46.739552-8.073323q-11.079453-1.913754-9.1657-12.993207l1.60351-9.283331q1.913754-11.079453 12.993207-9.165699l46.739553 8.073322q11.079453 1.913754 9.165699 12.993207Z" fill="#01B8E2" p-id="2524"></path><path d="M735.371261 763.926566m-1.913754 11.079453l-1.603509 9.283331q-1.913754 11.079453-12.993208 9.1657l-46.739552-8.073323q-11.079453-1.913754-9.165699-12.993207l1.603509-9.283331q1.913754-11.079453 12.993208-9.165699l46.739552 8.073322q11.079453 1.913754 9.165699 12.993207Z" fill="#066984" p-id="2525"></path><path d="M732.07999 757.948677m-1.913754 11.079453l-1.60351 9.283331q-1.913754 11.079453-12.993207 9.165699l-46.739552-8.073322q-11.079453-1.913754-9.1657-12.993207l1.60351-9.283331q1.913754-11.079453 12.993207-9.1657l46.739552 8.073323q11.079453 1.913754 9.1657 12.993207Z" fill="#01B8E2" p-id="2526"></path><path d="M439.403216 853.699722m-10.098717-4.94294l-8.461584-4.141626q-10.098717-4.94294-5.155777-15.041657l20.852184-42.602238q4.94294-10.098717 15.041657-5.155777l8.461585 4.141626q10.098717 4.94294 5.155777 15.041657l-20.852185 42.602238q-4.94294 10.098717-15.041657 5.155777Z" fill="#066984" p-id="2527"></path><path d="M446.083912 852.168794m-10.098717-4.94294l-8.461584-4.141625q-10.098717-4.94294-5.155777-15.041657l20.852184-42.602238q4.94294-10.098717 15.041657-5.155777l8.461584 4.141625q10.098717 4.94294 5.155777 15.041657l-20.852184 42.602238q-4.94294 10.098717-15.041657 5.155777Z" fill="#01B8E2" p-id="2528"></path><path d="M189.964021 310.148775m11.022086-2.22044l9.235264-1.860479q11.022086-2.220441 13.242527 8.801646l9.367104 46.497544q2.220441 11.022086-8.801646 13.242527l-9.235263 1.860479q-11.022086 2.220441-13.242527-8.801646l-9.367104-46.497544q-2.220441-11.022086 8.801645-13.242527Z" fill="#066984" p-id="2529"></path><path d="M183.234432 309.003516m11.022086-2.220441l9.235264-1.860478q11.022086-2.220441 13.242527 8.801645l9.367104 46.497544q2.220441 11.022086-8.801645 13.242527l-9.235264 1.860479q-11.022086 2.220441-13.242527-8.801646l-9.367104-46.497544q-2.220441-11.022086 8.801645-13.242527Z" fill="#01B8E2" p-id="2530"></path><path d="M370.705967 174.200717m11.022086-2.22044l9.235264-1.860479q11.022086-2.220441 13.242526 8.801646l9.367105 46.497544q2.220441 11.022086-8.801646 13.242527l-9.235263 1.860478q-11.022086 2.220441-13.242527-8.801645l-9.367105-46.497545q-2.220441-11.022086 8.801646-13.242526Z" fill="#066984" p-id="2531"></path><path d="M363.996454 173.051413m11.022087-2.220441l9.235263-1.860478q11.022086-2.220441 13.242527 8.801645l9.367105 46.497545q2.220441 11.022086-8.801646 13.242526l-9.235264 1.860479q-11.022086 2.220441-13.242526-8.801646l-9.367105-46.497544q-2.220441-11.022086 8.801646-13.242527Z" fill="#01B8E2" p-id="2532"></path><path d="M793.98912 238.26432m0 11.24352l0 9.4208q0 11.24352-11.24352 11.24352l-47.43168 0q-11.24352 0-11.24352-11.24352l0-9.4208q0-11.24352 11.24352-11.24352l47.43168 0q11.24352 0 11.24352 11.24352Z" fill="#066984" p-id="2533"></path><path d="M789.8112 232.36608m0 11.24352l0 9.4208q0 11.24352-11.24352 11.24352l-47.43168 0q-11.24352 0-11.24352-11.24352l0-9.4208q0-11.24352 11.24352-11.24352l47.43168 0q11.24352 0 11.24352 11.24352Z" fill="#01B8E2" p-id="2534"></path><path d="M760.88422 507.536148m-7.703869 8.189454l-6.454972 6.861837q-7.703869 8.189454-15.893322 0.485585l-34.547859-32.49938q-8.189454-7.703869-0.485585-15.893323l6.454972-6.861837q7.703869-8.189454 15.893322-0.485585l34.547859 32.499381q8.189454 7.703869 0.485585 15.893322Z" fill="#066984" p-id="2535"></path><path d="M761.875098 500.368856m-7.703869 8.189454l-6.454972 6.861837q-7.703869 8.189454-15.893322 0.485585l-34.547859-32.49938q-8.189454-7.703869-0.485585-15.893323l6.454972-6.861837q7.703869-8.189454 15.893322-0.485585l34.547859 32.499381q8.189454 7.703869 0.485585 15.893322Z" fill="#01B8E2" p-id="2536"></path><path d="M255.24613 661.936199m4.838689 10.149081l4.054275 8.503783q4.838689 10.14908-5.310392 14.987769l-42.814699 20.412392q-10.14908 4.838689-14.98777-5.310391l-4.054274-8.503783q-4.838689-10.14908 5.310391-14.987769l42.8147-20.412393q10.14908-4.838689 14.987769 5.310392Z" fill="#066984" p-id="2537"></path><path d="M248.931578 658.411988m4.838688 10.149081l4.054275 8.503783q4.838689 10.14908-5.310391 14.987769l-42.8147 20.412392q-10.14908 4.838689-14.987769-5.310391l-4.054275-8.503783q-4.838689-10.14908 5.310392-14.98777l42.814699-20.412392q10.14908-4.838689 14.987769 5.310392Z" fill="#01B8E2" p-id="2538"></path><path d="M837.197087 729.500588m-7.703869 8.189454l-6.454972 6.861837q-7.703869 8.189454-15.893322 0.485585l-34.547859-32.499381q-8.189454-7.703869-0.485585-15.893322l6.454972-6.861837q7.703869-8.189454 15.893322-0.485585l34.547859 32.49938q8.189454 7.703869 0.485585 15.893323Z" fill="#066984" p-id="2539"></path><path d="M838.193616 722.327418m-7.703869 8.189453l-6.454972 6.861837q-7.703869 8.189454-15.893322 0.485585l-34.547859-32.49938q-8.189454-7.703869-0.485585-15.893322l6.454972-6.861838q7.703869-8.189454 15.893323-0.485584l34.547858 32.49938q8.189454 7.703869 0.485585 15.893322Z" fill="#01B8E2" p-id="2540"></path><path d="M464.22016 291.1232m0 11.24352l0 9.4208q0 11.24352-11.24352 11.24352l-47.43168 0q-11.24352 0-11.24352-11.24352l0-9.4208q0-11.24352 11.24352-11.24352l47.43168 0q11.24352 0 11.24352 11.24352Z" fill="#066984" p-id="2541"></path><path d="M459.81696 285.40928m0 11.24352l0 9.4208q0 11.24352-11.24352 11.24352l-47.43168 0q-11.24352 0-11.24352-11.24352l0-9.4208q0-11.24352 11.24352-11.24352l47.43168 0q11.24352 0 11.24352 11.24352Z" fill="#01B8E2" p-id="2542"></path><path d="M887.020989 354.08401m-7.926745 7.973923l-6.641717 6.681247q-7.926745 7.973923-15.900668 0.047179l-33.638628-33.439602q-7.973923-7.926745-0.047178-15.900669l6.641717-6.681247q7.926745-7.973923 15.900668-0.047178l33.638628 33.439602q7.973923 7.926745 0.047178 15.900668Z" fill="#066984" p-id="2543"></path><path d="M887.931441 346.89984m-7.926745 7.973924l-6.641717 6.681247q-7.926745 7.973923-15.900669 0.047178l-33.638628-33.439602q-7.973923-7.926745-0.047178-15.900668l6.641717-6.681248q7.926745-7.973923 15.900669-0.047178l33.638628 33.439602q7.973923 7.926745 0.047178 15.900669Z" fill="#01B8E2" p-id="2544"></path><path d="M663.657789 891.908981m-7.926745 7.973924l-6.641717 6.681247q-7.926745 7.973923-15.900669 0.047178l-33.638627-33.439602q-7.973923-7.926745-0.047179-15.900668l6.641717-6.681248q7.926745-7.973923 15.900669-0.047178l33.638628 33.439602q7.973923 7.926745 0.047178 15.900669Z" fill="#066984" p-id="2545"></path><path d="M664.579111 884.741097m-7.926745 7.973924l-6.641718 6.681247q-7.926745 7.973923-15.900668 0.047178l-33.638628-33.439602q-7.973923-7.926745-0.047178-15.900668l6.641717-6.681248q7.926745-7.973923 15.900668-0.047178l33.638628 33.439602q7.973923 7.926745 0.047179 15.900669Z" fill="#01B8E2" p-id="2546"></path><path d="M352.46089 667.953035m-7.926745 7.973923l-6.641717 6.681248q-7.926745 7.973923-15.900669 0.047178l-33.638628-33.439602q-7.973923-7.926745-0.047178-15.900669l6.641717-6.681247q7.926745-7.973923 15.900669-0.047178l33.638627 33.439602q7.973923 7.926745 0.047179 15.900668Z" fill="#066984" p-id="2547"></path><path d="M353.377546 660.803475m-7.926745 7.973924l-6.641718 6.681247q-7.926745 7.973923-15.900668 0.047179l-33.638628-33.439603q-7.973923-7.926745-0.047178-15.900668l6.641717-6.681247q7.926745-7.973923 15.900668-0.047179l33.638628 33.439602q7.973923 7.926745 0.047179 15.900669Z" fill="#01B8E2" p-id="2548"></path><path d="M556.53948 223.197747m4.293643 10.391409l3.597587 8.706827q4.293642 10.391409-6.097767 14.685051l-43.836981 18.11307q-10.391409 4.293642-14.685051-6.097767l-3.597588-8.706827q-4.293642-10.391409 6.097767-14.685051l43.836982-18.11307q10.391409-4.293642 14.685051 6.097767Z" fill="#066984" p-id="2549"></path><path d="M554.972283 216.57006m4.293642 10.391409l3.597587 8.706827q4.293642 10.391409-6.097766 14.685051l-43.836982 18.11307q-10.391409 4.293642-14.685051-6.097767l-3.597587-8.706827q-4.293642-10.391409 6.097766-14.685051l43.836982-18.11307q10.391409-4.293642 14.685051 6.097767Z" fill="#01B8E2" p-id="2550"></path><path d="M360.942559 376.490269m-10.14908 4.838689l-8.503783 4.054275q-10.14908 4.838689-14.98777-5.310392l-20.412392-42.814699q-4.838689-10.14908 5.310392-14.98777l8.503783-4.054274q10.14908-4.838689 14.987769 5.310391l20.412392 42.8147q4.838689 10.14908-5.310391 14.987769Z" fill="#066984" p-id="2551"></path><path d="M354.410831 373.27869m-10.149081 4.838689l-8.503783 4.054275q-10.14908 4.838689-14.987769-5.310391l-20.412392-42.8147q-4.838689-10.14908 5.310391-14.987769l8.503783-4.054275q10.14908-4.838689 14.987769 5.310391l20.412393 42.8147q4.838689 10.14908-5.310392 14.987769Z" fill="#01B8E2" p-id="2552"></path><path d="M363.486095 894.484325m-11.079454-1.913754l-9.28333-1.603509q-11.079453-1.913754-9.1657-12.993208l8.073323-46.739552q1.913754-11.079453 12.993207-9.165699l9.283331 1.603509q11.079453 1.913754 9.165699 12.993208l-8.073322 46.739552q-1.913754 11.079453-12.993208 9.165699Z" fill="#066984" p-id="2553"></path><path d="M360.012428 888.077106m-11.079454-1.913754l-9.28333-1.60351q-11.079453-1.913754-9.1657-12.993207l8.073323-46.739552q1.913754-11.079453 12.993207-9.1657l9.283331 1.60351q11.079453 1.913754 9.165699 12.993207l-8.073322 46.739552q-1.913754 11.079453-12.993208 9.1657Z" fill="#01B8E2" p-id="2554"></path><path d="M530.602855 847.169666m-6.235139-9.35627l-5.224342-7.839498q-6.235139-9.35627 3.121131-15.591409l39.470166-26.303427q9.35627-6.235139 15.591408 3.121131l5.224342 7.839498q6.235139 9.35627-3.121131 15.591408l-39.470165 26.303428q-9.35627 6.235139-15.591409-3.121131Z" fill="#066984" p-id="2555"></path><path d="M527.197939 842.082402m-6.235139-9.35627l-5.224342-7.839498q-6.235139-9.35627 3.121131-15.591408l39.470166-26.303428q9.35627-6.235139 15.591409 3.121131l5.224342 7.839498q6.235139 9.35627-3.121131 15.591409l-39.470166 26.303427q-9.35627 6.235139-15.591409-3.121131Z" fill="#01B8E2" p-id="2556"></path><path d="M163.15954 590.14522m-1.525921-11.139493l-1.278549-9.333637q-1.525921-11.139493 9.613572-12.665414l46.992835-6.437218q11.139493-1.525921 12.665414 9.613573l1.278549 9.333637q1.525921 11.139493-9.613572 12.665414l-46.992835 6.437218q-11.139493 1.525921-12.665414-9.613573Z" fill="#066984" p-id="2557"></path><path d="M162.348019 584.058553m-1.525921-11.139493l-1.278549-9.333637q-1.525921-11.139493 9.613572-12.665414l46.992835-6.437218q11.139493-1.525921 12.665414 9.613573l1.278549 9.333637q1.525921 11.139493-9.613572 12.665414l-46.992835 6.437217q-11.139493 1.525921-12.665414-9.613572Z" fill="#01B8E2" p-id="2558"></path><path d="M645.059934 354.771909m-7.703869 8.189454l-6.454972 6.861837q-7.703869 8.189454-15.893322 0.485585l-34.547859-32.499381q-8.189454-7.703869-0.485585-15.893322l6.454972-6.861837q7.703869-8.189454 15.893322-0.485585l34.547859 32.49938q8.189454 7.703869 0.485585 15.893323Z" fill="#066984" p-id="2559"></path><path d="M650.469865 350.632901m-7.703869 8.189454l-6.454972 6.861837q-7.703869 8.189454-15.893322 0.485585l-34.547859-32.49938q-8.189454-7.703869-0.485585-15.893322l6.454972-6.861838q7.703869-8.189454 15.893322-0.485585l34.547859 32.499381q8.189454 7.703869 0.485585 15.893322Z" fill="#01B8E2" p-id="2560"></path><path d="M298.017787 246.767519m-7.703868 8.189454l-6.454972 6.861837q-7.703869 8.189454-15.893322 0.485585l-34.547859-32.499381q-8.189454-7.703869-0.485585-15.893322l6.454972-6.861837q7.703869-8.189454 15.893322-0.485585l34.547859 32.49938q8.189454 7.703869 0.485585 15.893323Z" fill="#066984" p-id="2561"></path><path d="M303.418768 242.607804m-7.703869 8.189453l-6.454972 6.861838q-7.703869 8.189454-15.893322 0.485585l-34.547859-32.499381q-8.189454-7.703869-0.485584-15.893322l6.454971-6.861837q7.703869-8.189454 15.893323-0.485585l34.547858 32.49938q8.189454 7.703869 0.485585 15.893322Z" fill="#01B8E2" p-id="2562"></path><path d="M777.592057 626.612814m-9.409251-6.154896l-7.883889-5.157108q-9.409251-6.154896-3.254355-15.564147l25.964916-39.693669q6.154896-9.409251 15.564147-3.254355l7.883889 5.157108q9.409251 6.154896 3.254355 15.564146l-25.964916 39.69367q-6.154896 9.409251-15.564147 3.254355Z" fill="#066984" p-id="2563"></path><path d="M775.75222 618.593848m-9.40925-6.154896l-7.88389-5.157108q-9.409251-6.154896-3.254355-15.564146l25.964917-39.69367q6.154896-9.409251 15.564146-3.254355l7.88389 5.157108q9.409251 6.154896 3.254354 15.564147l-25.964916 39.693669q-6.154896 9.409251-15.564146 3.254355Z" fill="#01B8E2" p-id="2564"></path><path d="M344.98204 779.922424m-10.391409 4.293642l-8.706827 3.597587q-10.391409 4.293642-14.685051-6.097766l-18.11307-43.836982q-4.293642-10.391409 6.097766-14.685051l8.706827-3.597587q10.391409-4.293642 14.685051 6.097766l18.11307 43.836982q4.293642 10.391409-6.097766 14.685051Z" fill="#066984" p-id="2565"></path><path d="M337.326491 776.911076m-10.391409 4.293642l-8.706827 3.597587q-10.391409 4.293642-14.685051-6.097766l-18.11307-43.836982q-4.293642-10.391409 6.097766-14.685051l8.706827-3.597587q10.391409-4.293642 14.685052 6.097766l18.11307 43.836982q4.293642 10.391409-6.097767 14.685051Z" fill="#01B8E2" p-id="2566"></path><path d="M629.349269 754.112699m-11.231222 0.525722l-9.410496 0.440495q-11.231222 0.525722-11.756945-10.7055l-2.217799-47.379802q-0.525722-11.231222 10.7055-11.756945l9.410496-0.440495q11.231222-0.525722 11.756945 10.7055l2.217799 47.379802q0.525722 11.231222-10.7055 11.756945Z" fill="#066984" p-id="2567"></path><path d="M623.144606 748.718728m-11.231222 0.525721l-9.410496 0.440496q-11.231222 0.525722-11.756944-10.7055l-2.2178-47.379802q-0.525722-11.231222 10.705501-11.756945l9.410496-0.440495q11.231222-0.525722 11.756944 10.7055l2.2178 47.379802q0.525722 11.231222-10.705501 11.756944Z" fill="#01B8E2" p-id="2568"></path></svg>